<svg id="Group_8756" data-name="Group 8756" xmlns="http://www.w3.org/2000/svg" width="63.479" height="47.705" viewBox="0 0 63.479 47.705">
  <g id="Group_8717" data-name="Group 8717" transform="translate(0)">
    <circle id="Ellipse_420" data-name="Ellipse 420" cx="10.193" cy="10.193" r="10.193" transform="translate(21.546 0)" fill="#248ded"/>
    <path id="Path_651" data-name="Path 651" d="M10.935,35.919H26.8a7.978,7.978,0,0,0,7.935-7.973V25.288A13.257,13.257,0,0,0,21.515,12h-5.29A13.257,13.257,0,0,0,3,25.288v2.658a7.978,7.978,0,0,0,7.935,7.973Z" transform="translate(12.87 11.784)" fill="#248ded"/>
    <ellipse id="Ellipse_421" data-name="Ellipse 421" cx="7.645" cy="7.645" rx="7.645" ry="7.645" transform="translate(45.33 5.097)" fill="#248ded"/>
    <ellipse id="Ellipse_422" data-name="Ellipse 422" cx="7.645" cy="7.645" rx="7.645" ry="7.645" transform="translate(2.858 5.097)" fill="#248ded"/>
    <path id="Path_652" data-name="Path 652" d="M17.563,12a7.914,7.914,0,0,0-2.513.425,18.531,18.531,0,0,1,5.158,12.863v2.658H25.5a5.319,5.319,0,0,0,5.29-5.315V19.973A7.978,7.978,0,0,0,22.853,12Z" transform="translate(32.691 11.784)" fill="#248ded"/>
    <path id="Path_653" data-name="Path 653" d="M28.275,12a7.914,7.914,0,0,1,2.513.425A18.531,18.531,0,0,0,25.63,25.288v2.658H20.34a5.319,5.319,0,0,1-5.29-5.315V19.973A7.978,7.978,0,0,1,22.985,12Z" transform="translate(-15.05 11.784)" fill="#248ded"/>
  </g>
</svg>
