<svg xmlns="http://www.w3.org/2000/svg" width="20" height="20" viewBox="0 0 20 20"><defs><style>.a{fill:#1b75bc;}</style></defs><g transform="translate(1 1)"><g transform="translate(-1 -1)"><path class="a" d="M9-1A10,10,0,1,0,19,9,10,10,0,0,0,9-1ZM9,17.333A8.333,8.333,0,1,1,17.333,9,8.333,8.333,0,0,1,9,17.333Z" transform="translate(1 1)"/><path class="a" d="M152.5,84.333a.833.833,0,0,0-.833.833v5h-2.5a.833.833,0,0,0,0,1.667H152.5a.833.833,0,0,0,.833-.833V85.166A.833.833,0,0,0,152.5,84.333Z" transform="translate(-142.501 -81)"/></g></g></svg>