<svg xmlns="http://www.w3.org/2000/svg" width="22" height="22.008" viewBox="0 0 22 22.008"><defs><style>.a{fill:#fff;}</style></defs><g transform="translate(-0.008 -2.523)"><path class="a" d="M.673,10.5A8.513,8.513,0,0,1,.025,6.884,2.952,2.952,0,0,1,.946,4.9c.619-.584,1.2-1.2,1.811-1.792a1.714,1.714,0,0,1,2.579,0c.49.48.975.97,1.46,1.46.47.47.945.94,1.416,1.416a1.718,1.718,0,0,1,0,2.643C7.622,9.22,7.033,9.819,6.429,10.4a.363.363,0,0,0-.089.475,10.611,10.611,0,0,0,1.613,2.589,18.538,18.538,0,0,0,4.509,4.1c.376.233.787.406,1.178.619a.361.361,0,0,0,.5-.094c.589-.609,1.193-1.208,1.8-1.807a1.7,1.7,0,0,1,2.574,0q1.455,1.44,2.9,2.9a1.721,1.721,0,0,1-.01,2.623c-.549.554-1.128,1.079-1.643,1.658a3.262,3.262,0,0,1-2.782,1.059,11.557,11.557,0,0,1-4.425-1.287,24.077,24.077,0,0,1-7.983-6.246A22.011,22.011,0,0,1,.673,10.5Z" transform="translate(0 0)"/></g></svg>