<svg xmlns="http://www.w3.org/2000/svg" width="49.187" height="55.504" viewBox="0 0 49.187 55.504">
  <g id="noun-discount-6162448" transform="translate(-340.209 -731.798)">
    <g id="Group_120571" data-name="Group 120571" transform="translate(340.209 731.798)">
      <g id="Group_120570" data-name="Group 120570">
        <path id="Path_197565" data-name="Path 197565" d="M380.548,731.8h-.006a11.264,11.264,0,0,0-9.449,5.838c-2.728,4.724-2.039,10.712,1.977,13.722h0c.125.093.254.184.385.273l.006,0a.981.981,0,0,0,1.391-.163l.613-.78a.993.993,0,0,0-.168-1.394l-.485-.369c-.042-.032-.128-.1-.128-.1-2.408-2-3.114-6.05-1.008-9.7a8.155,8.155,0,0,1,6.858-4.332,5.711,5.711,0,0,1,2.87.746,5.852,5.852,0,0,1,2.419,2.788h0a7.94,7.94,0,0,1,.181,5.526l-.042.145a.993.993,0,0,0,.651,1.245l.954.3a.981.981,0,0,0,.3.045.991.991,0,0,0,.946-.7l.028-.085a10.672,10.672,0,0,0-1.27-9.45h0a8.671,8.671,0,0,0-7.022-3.564h0Zm-5.9,15.757c.095,0,0,0-.033,0h0a4.888,4.888,0,0,0,.613.613l.584.449.011.009a1.848,1.848,0,0,1,.311,2.593l-.614.783a1.835,1.835,0,0,1-2.544.34h0c-.146-.1-.284-.2-.421-.3h0c-.23-.175-.449-.354-.659-.543h-.006a3.019,3.019,0,1,0,2.889-3.947h-.13Zm-11.279,10.79h0a2.541,2.541,0,0,1,1.274.345,2.594,2.594,0,0,1,.949,3.543h0a2.594,2.594,0,1,1-4.492-2.594h0a2.587,2.587,0,0,1,2.245-1.294Zm-.4-23.075h0a1.472,1.472,0,0,0-1,.415l-20.07,20.078a6,6,0,0,0,.034,8.374l2.807,2.807L358.6,742.913a3.419,3.419,0,0,1,1.993-1.526l7.612-2.04a14.262,14.262,0,0,1,1.2-2.678,14.089,14.089,0,0,1,.919-1.4Zm7.825,26.246h.008a.836.836,0,0,1,.168.019.994.994,0,0,1,.626.431l.553.854a.994.994,0,0,1-.293,1.373l-11.118,7.22a.993.993,0,0,1-1.373-.291l-.555-.851a1,1,0,0,1,.291-1.375l11.12-7.221a.986.986,0,0,1,.535-.157Zm-19.364,7.046h.007a.96.96,0,0,1,.483.129l1.261.729a.992.992,0,0,1,.364,1.358l-.5.868a.993.993,0,0,1-.86.5.976.976,0,0,1-.5-.134l-1.26-.728a.992.992,0,0,1-.364-1.355l.5-.867a1,1,0,0,1,.6-.464.954.954,0,0,1,.245-.03Zm4.282,2.472h.006a.96.96,0,0,1,.483.129l1.263.729a.993.993,0,0,1,.363,1.358l-.5.866a.991.991,0,0,1-.86.5.98.98,0,0,1-.5-.134l-1.26-.727a.993.993,0,0,1-.364-1.355l.5-.868a.991.991,0,0,1,.6-.464.956.956,0,0,1,.245-.031Zm11.954-1.329h0a2.535,2.535,0,0,1,1.273.345,2.593,2.593,0,0,1,.95,3.543h0A2.594,2.594,0,0,1,365.4,771h0a2.589,2.589,0,0,1,2.247-1.294Zm-7.581,3.854h.006a.952.952,0,0,1,.483.129l1.263.729a.993.993,0,0,1,.363,1.358l-.5.866a.992.992,0,0,1-1.356.363l-1.26-.728a.993.993,0,0,1-.364-1.355l.5-.868a.991.991,0,0,1,.6-.464.97.97,0,0,1,.245-.03Zm4.377,2.524h0a.942.942,0,0,1,.483.13l1.263.729a.992.992,0,0,1,.363,1.357l-.5.868a1,1,0,0,1-1.356.363l-1.26-.728a.994.994,0,0,1-.364-1.355l.5-.869a.992.992,0,0,1,.6-.463.915.915,0,0,1,.245-.031Zm4.279,2.472h0a.951.951,0,0,1,.484.13l1.261.728a.994.994,0,0,1,.363,1.358l-.5.868A.995.995,0,0,1,369,782l-1.259-.728a.994.994,0,0,1-.365-1.355l.5-.869a1,1,0,0,1,.6-.464.96.96,0,0,1,.245-.029Zm9.245-39.612h0a5.922,5.922,0,0,0-1.61.224l-2.047.551a7.793,7.793,0,0,0-.956,5.013,6.009,6.009,0,1,1-3.979,3.166v0a11.82,11.82,0,0,1-.544-6.706l-7.722,2.067a1.478,1.478,0,0,0-.864.661L346.075,768.5a6,6,0,0,0,2.2,8.08l17.219,9.941a5.99,5.99,0,0,0,8.12-2.184l14.153-24.513a1.491,1.491,0,0,0,.153-1.12l-4.124-15.363a5.978,5.978,0,0,0-2.788-3.592l-.021-.012a5.932,5.932,0,0,0-2.975-.8Z" transform="translate(-340.209 -731.798)" fill="#1b75bc"/>
      </g>
    </g>
  </g>
</svg>
