<svg xmlns="http://www.w3.org/2000/svg" width="114" height="33.5" viewBox="0 0 114 33.5">
  <g id="cloudflare-logo" transform="translate(-3.9 -3.6)">
    <path id="Path_36735" data-name="Path 36735" d="M88.1,24a2.855,2.855,0,0,0-.3-2.6,3.094,3.094,0,0,0-2.1-1.1l-17.4-.2c-.1,0-.2-.1-.3-.1a.188.188,0,0,1,0-.3c.1-.2.2-.3.4-.3l17.5-.2A6.292,6.292,0,0,0,91,15.4l1-2.6c0-.1.1-.2,0-.3a11.4,11.4,0,0,0-21.9-1.2,5.459,5.459,0,0,0-3.6-1,5.209,5.209,0,0,0-4.6,4.6,5.462,5.462,0,0,0,.1,1.8A7.3,7.3,0,0,0,54.9,24a4.1,4.1,0,0,0,.1,1.1.319.319,0,0,0,.3.3H87.4c.2,0,.4-.1.4-.3Z" transform="translate(12.6)" fill="#fff"/>
    <path id="Path_36736" data-name="Path 36736" d="M93.6,12.8h-.5c-.1,0-.2.1-.3.2l-.7,2.4a2.855,2.855,0,0,0,.3,2.6,3.094,3.094,0,0,0,2.1,1.1l3.7.2c.1,0,.2.1.3.1a.188.188,0,0,1,0,.3c-.1.2-.2.3-.4.3l-3.8.2A6.292,6.292,0,0,0,89.2,24l-.2.9c-.1.1,0,.3.2.3h13.2a.265.265,0,0,0,.3-.3,10.871,10.871,0,0,0,.4-2.6,9.56,9.56,0,0,0-9.5-9.5" transform="translate(12.6)" fill="#fff"/>
    <path id="Path_36737" data-name="Path 36737" d="M116.888,30.8a.906.906,0,1,1,1.012-.9.957.957,0,0,1-1.012.9m0-1.6a.7.7,0,1,0,.787.7.73.73,0,0,0-.787-.7m.45,1.2h-.225l-.225-.3h-.225v.3h-.225v-.9H117q.337,0,.337.3c0,.1-.112.2-.225.3l.225.3ZM117,29.9c.112,0,.112,0,.112-.1s-.112-.1-.112-.1h-.337V30H117ZM16.154,29h2.473v6H22.9v1.9H16.154Zm9.331,3.9c0-2.3,2.024-4.1,4.834-4.1s4.722,1.8,4.722,4.1S33.018,37,30.208,37c-2.7,0-4.722-1.8-4.722-4.1m7.083,0a2.259,2.259,0,1,0-2.249,2,1.918,1.918,0,0,0,2.249-2m5.509.5V29h2.473v4.4a1.56,1.56,0,0,0,1.686,1.7,1.486,1.486,0,0,0,1.686-1.6V29H46.4v4.4c0,2.6-1.686,3.7-4.16,3.7-2.586-.1-4.16-1.2-4.16-3.7M50.107,29h3.485c3.148,0,5.059,1.6,5.059,3.9s-1.911,4-5.059,4H50.22V29Zm3.485,5.9c1.462,0,2.473-.7,2.473-2s-1.012-2-2.473-2H52.58v4ZM62.137,29H69.22v1.9H64.61v1.3h4.16V34H64.61v2.9H62.137ZM72.7,29h2.473v6H79.45v1.9H72.7Zm13.154-.1h2.473l3.822,8h-2.7l-.675-1.4H85.3l-.675,1.4H82.036l3.822-8Zm2.249,4.9L87.1,31.6l-1.012,2.2ZM95.3,29h4.16a4.135,4.135,0,0,1,2.923.9,2.273,2.273,0,0,1,.787,1.8,2.432,2.432,0,0,1-1.8,2.4l2.136,2.8H100.7l-1.8-2.4H97.776v2.4H95.3V29Zm4.047,3.8c.787,0,1.349-.4,1.349-.9,0-.6-.562-.9-1.349-.9H97.776v1.9H99.35Zm7.308-3.8h7.2v1.8h-4.722V32H113.4v1.8h-4.272V35h4.834v1.9h-7.308Zm-95.9,4.9a2.24,2.24,0,0,1-2.024,1.2,2.1,2.1,0,1,1,0-4.2,2.367,2.367,0,0,1,2.136,1.3h2.586a4.564,4.564,0,0,0-4.722-3.3C6.036,28.9,3.9,30.7,3.9,33s2.024,4.1,4.722,4.1a4.794,4.794,0,0,0,4.722-3.2Z" fill="#fff"/>
  </g>
</svg>
