<svg xmlns="http://www.w3.org/2000/svg" width="44.061" height="44.089" viewBox="0 0 44.061 44.089">
  <path id="Price_Match" data-name="Price Match" d="M44.746,23.085a2.929,2.929,0,0,0-.5-4.307l-.952-.635a2.841,2.841,0,0,1-1.133-3.174l.317-1.088a2.849,2.849,0,0,0-2.312-3.627l-1.133-.181a2.888,2.888,0,0,1-2.4-2.358l-.181-1.133a2.872,2.872,0,0,0-3.672-2.267l-1.088.317a2.886,2.886,0,0,1-3.174-1.088l-.68-.907a2.893,2.893,0,0,0-4.307-.453l-.816.771a2.952,2.952,0,0,1-3.355.408l-1-.544A2.916,2.916,0,0,0,14.28,4.27l-.408,1.043a2.87,2.87,0,0,1-2.856,1.813L9.837,7.036A2.891,2.891,0,0,0,6.8,10.119l.091,1.133a2.872,2.872,0,0,1-1.768,2.856l-1.043.453a2.89,2.89,0,0,0-1.405,4.08l.544,1a2.87,2.87,0,0,1-.363,3.355l-.725.816a2.929,2.929,0,0,0,.5,4.307l.952.635a2.841,2.841,0,0,1,1.133,3.174L4.4,33.059a2.849,2.849,0,0,0,2.312,3.627l1.133.181a2.888,2.888,0,0,1,2.4,2.358l.181,1.133A2.872,2.872,0,0,0,14.1,42.625l1.088-.317A2.886,2.886,0,0,1,18.36,43.4l.68.907a2.893,2.893,0,0,0,4.307.453l.816-.771a2.952,2.952,0,0,1,3.355-.408l1,.544A2.916,2.916,0,0,0,32.6,42.67L33,41.628a2.87,2.87,0,0,1,2.856-1.813l1.133.045a2.891,2.891,0,0,0,3.038-3.083l-.091-1.133a2.872,2.872,0,0,1,1.768-2.856l1.043-.453a2.89,2.89,0,0,0,1.405-4.08l-.544-1a2.87,2.87,0,0,1,.363-3.355ZM23.438,37.139A13.692,13.692,0,1,1,37.129,23.448,13.679,13.679,0,0,1,23.438,37.139Zm-.952-18.633a1.793,1.793,0,0,0-.363,1.224,1.815,1.815,0,0,0,.408,1.224,4.242,4.242,0,0,0,1.5.952,13.04,13.04,0,0,1,3.763,2.176,3.966,3.966,0,0,1,1.224,3.128,4.063,4.063,0,0,1-1.224,3.083,5.147,5.147,0,0,1-2.675,1.315v1.859a.454.454,0,0,1-.453.453H23.03a.454.454,0,0,1-.453-.453V31.654a5.861,5.861,0,0,1-3.4-1.5,4.354,4.354,0,0,1-1.36-3.264.544.544,0,0,1,.5-.544l2.63-.045a.539.539,0,0,1,.544.453,2.279,2.279,0,0,0,.589,1.5,2.05,2.05,0,0,0,1.541.589,1.513,1.513,0,0,0,1.224-.453,1.815,1.815,0,0,0,.408-1.224,2.031,2.031,0,0,0-.408-1.36,4.242,4.242,0,0,0-1.5-.952,13.025,13.025,0,0,1-3.808-2.131,3.941,3.941,0,0,1-1.179-3.128,4,4,0,0,1,1.269-3.083,5.392,5.392,0,0,1,2.992-1.36V13.2a.454.454,0,0,1,.453-.453h1.632a.454.454,0,0,1,.453.453V15.2a4.735,4.735,0,0,1,2.766,1.587,4.874,4.874,0,0,1,1.133,2.9.544.544,0,0,1-.5.544l-2.675.045a.539.539,0,0,1-.544-.453,2.312,2.312,0,0,0-.453-1.36,1.462,1.462,0,0,0-1.224-.589A2.427,2.427,0,0,0,22.486,18.506Z" transform="translate(-1.407 -1.426)" fill="#fff"/>
</svg>
