<svg xmlns="http://www.w3.org/2000/svg" width="18.5" height="18.5" viewBox="0 0 18.5 18.5">
  <path id="Path_663" data-name="Path 663" d="M11.287,9.266,18.2,2.348a1.014,1.014,0,0,0,0-1.431L17.6.311a1.014,1.014,0,0,0-1.431,0L9.25,7.228,2.333.311A1.014,1.014,0,0,0,.9.311L.3.917a1.013,1.013,0,0,0,0,1.431L7.213,9.266.3,16.183a1.015,1.015,0,0,0,0,1.431L.9,18.22a1.014,1.014,0,0,0,1.431,0L9.25,11.3l6.917,6.917a1,1,0,0,0,.715.3h0a1,1,0,0,0,.715-.3l.606-.606a1.015,1.015,0,0,0,0-1.431Z" transform="translate(0 -0.016)" fill="#fff"/>
</svg>
