<svg xmlns="http://www.w3.org/2000/svg" xmlns:xlink="http://www.w3.org/1999/xlink" width="92" height="36.71" viewBox="0 0 92 36.71">
  <defs>
    <clipPath id="clip-path">
      <rect id="Rectangle_46353" data-name="Rectangle 46353" width="92" height="36.71" fill="#fff"/>
    </clipPath>
  </defs>
  <g id="affirm-logo" clip-path="url(#clip-path)">
    <path id="Path_36728" data-name="Path 36728" d="M6.017,109.158c-1.138,0-1.717-.56-1.717-1.481,0-1.717,1.915-2.295,5.408-2.666a3.874,3.874,0,0,1-3.7,4.148Zm1.5-12.87A12.347,12.347,0,0,0,.594,98.706l1.423,3.005a8.185,8.185,0,0,1,5.092-2.123c1.732,0,2.69.58,2.69,1.747,0,.784-.633,1.181-1.831,1.337-4.478.58-7.988,1.816-7.988,5.266,0,2.735,1.947,4.39,4.989,4.39a5.886,5.886,0,0,0,5.023-2.791V111.9h4.049v-9.894c0-4.079-2.832-5.725-6.52-5.725Z" transform="translate(0.016 -75.611)" fill="#fff" fill-rule="evenodd"/>
    <path id="Path_36729" data-name="Path 36729" d="M224.39,96.76v15.148h4.332v-7.3c0-3.467,2.1-4.487,3.561-4.487a3.322,3.322,0,0,1,1.853.547l.792-4a4.9,4.9,0,0,0-1.932-.35,4.579,4.579,0,0,0-4.549,2.99V96.76Z" transform="translate(-176.219 -75.638)" fill="#fff" fill-rule="evenodd"/>
    <path id="Path_36730" data-name="Path 36730" d="M299.839,96.32a6,6,0,0,0-4.895,2.658,5.347,5.347,0,0,0-9.287.077V96.764H281.48v15.148h4.336v-7.8c0-2.791,1.466-4.141,2.834-4.141,1.239,0,2.376.8,2.376,2.868v9.072h4.328v-7.8c0-2.832,1.43-4.141,2.862-4.141,1.146,0,2.361.833,2.361,2.838v9.1h4.328V101.44a4.771,4.771,0,0,0-5.058-5.12" transform="translate(-221.053 -75.642)" fill="#fff" fill-rule="evenodd"/>
    <path id="Path_36731" data-name="Path 36731" d="M96.041,70.692H92.117V69.153c0-2.005,1.144-2.576,2.13-2.576a4.332,4.332,0,0,1,1.932.483L97.514,64A7.424,7.424,0,0,0,93.7,63.12c-2.767,0-5.917,1.561-5.917,6.457v1.114H81.222V69.153c0-2.005,1.142-2.576,2.13-2.576a4.1,4.1,0,0,1,1.932.483L86.619,64A7.619,7.619,0,0,0,82.8,63.12c-2.767,0-5.917,1.561-5.917,6.457v1.114H74.38v3.34h2.514V85.839h4.328V74.032h6.567V85.839h4.328V74.032h3.924Z" transform="translate(-58.412 -49.57)" fill="#fff" fill-rule="evenodd"/>
    <path id="Path_36732" data-name="Path 36732" d="M191.644,98.39H187.32v15.141h4.324Z" transform="translate(-147.107 -77.268)" fill="#fff"/>
    <path id="Path_36733" data-name="Path 36733" d="M188.06,18.564H192.3c2.471-7.769,10.854-14.6,20.824-14.6,12.125,0,22.6,9.231,22.6,23.6a29.537,29.537,0,0,1-1.2,8.718h4.111l.041-.142a34.817,34.817,0,0,0,1.018-8.563c0-16.026-11.678-27.56-26.562-27.56-11.691,0-22.112,8.115-25.066,18.548Z" transform="translate(-147.688 -0.016)" fill="#fff" fill-rule="evenodd"/>
  </g>
</svg>
