<svg xmlns="http://www.w3.org/2000/svg" width="53.684" height="45.045" viewBox="0 0 53.684 45.045">
  <g id="Group_fast_track_1" data-name="Group fast track 1" transform="translate(-1036.595 -1507)">
    <path id="Path_3" data-name="Path 3" d="M40.963,24.576A13.875,13.875,0,1,1,27.11,38.453,13.862,13.862,0,0,1,40.963,24.576ZM37.579,12.758a1.428,1.428,0,0,0-1.427,1.433v1.2a1.424,1.424,0,0,0,1.427,1.429h1.445v1.292l1.939.986A19.229,19.229,0,0,0,32.5,21.053c-6.077,3.057-11.913.779-16.05,4.92-.473.469-.324.9.316.913,2.729.055,4.3.685,5.141,2.18.6,1.069.1,1.219-1.223,1.081-6.073-.633-7.342,5.094-13.368,2.794-.676-.258-.953.128-.512,1.1C9.494,40,14.355,42.314,18.958,40.8c3.9-1.288,4.574.716,2.84,2.449A6.911,6.911,0,0,1,15.61,44.37c-.815-.263-.968-.124-.71.56,1.805,4.81,5.672,7.245,11.272,5.082,1.321-.509,1.75.572.782,1.391l-1.939,1.641c-.49.415-.25,1.055.484,1.11,6.3.458,8.471,3.649,15.464,3.649a19.35,19.35,0,0,0,14.71-31.881l.655-.746a2.585,2.585,0,0,0-.376-3.606,2.539,2.539,0,0,0-3.613-.025l-.7.789A19.135,19.135,0,0,0,42.9,19.212V16.825h1.443A1.422,1.422,0,0,0,45.772,15.4v-1.2a1.426,1.426,0,0,0-1.427-1.433Z" transform="translate(1030 1494.242)" fill="#fff" fill-rule="evenodd"/>
    <path id="Path_4" data-name="Path 4" d="M55.184,32.471a.731.731,0,0,0-.717.738v1.048a.728.728,0,0,0,1.456,0V33.209A.725.725,0,0,0,55.184,32.471Z" transform="translate(1015.571 1488.3)" fill="#fff"/>
    <path id="Path_5" data-name="Path 5" d="M55.184,63a.728.728,0,0,0-.717.735V64.78a.728.728,0,1,0,1.456,0V63.732A.724.724,0,0,0,55.184,63Z" transform="translate(1015.571 1479.099)" fill="#fff"/>
    <path id="Path_6" data-name="Path 6" d="M69.685,48.5a.728.728,0,0,0,0,1.455H70.73a.728.728,0,1,0,0-1.455Z" transform="translate(1011.203 1483.47)" fill="#fff"/>
    <path id="Path_7" data-name="Path 7" d="M39.206,48.5a.728.728,0,0,0,0,1.455h1.048a.728.728,0,1,0,0-1.455Z" transform="translate(1020.39 1483.47)" fill="#fff"/>
    <path id="Path_8" data-name="Path 8" d="M65.429,58.751A.726.726,0,0,0,64.923,60l.735.735a.726.726,0,1,0,1.027-1.026l-.735-.735A.727.727,0,0,0,65.429,58.751Z" transform="translate(1012.486 1480.379)" fill="#fff"/>
    <path id="Path_9" data-name="Path 9" d="M43.878,37.17a.727.727,0,0,0-.506,1.248l.738.735a.726.726,0,1,0,1.027-1.026l-.735-.735A.734.734,0,0,0,43.878,37.17Z" transform="translate(1018.982 1486.884)" fill="#fff"/>
    <path id="Path_10" data-name="Path 10" d="M66.157,37.17a.715.715,0,0,0-.5.221l-.735.735a.726.726,0,1,0,1.026,1.026l.735-.735A.725.725,0,0,0,66.157,37.17Z" transform="translate(1012.491 1486.884)" fill="#fff"/>
    <path id="Path_11" data-name="Path 11" d="M44.608,58.751a.719.719,0,0,0-.5.223l-.738.735a.727.727,0,1,0,1.03,1.026L45.132,60A.726.726,0,0,0,44.608,58.751Z" transform="translate(1018.986 1480.379)" fill="#fff"/>
    <path id="Path_12" data-name="Path 12" d="M54.7,45.917A1.088,1.088,0,1,1,53.61,47,1.077,1.077,0,0,1,54.7,45.917Zm4.908-4.785a.717.717,0,0,0-.5.215l-3.351,3.358a2.467,2.467,0,0,0-1.058-.243A2.544,2.544,0,1,0,57.233,47a2.5,2.5,0,0,0-.389-1.335l3.289-3.3A.726.726,0,0,0,59.605,41.132Z" transform="translate(1016.266 1485.69)" fill="#fff" fill-rule="evenodd"/>
  </g>
</svg>
