<svg xmlns="http://www.w3.org/2000/svg" width="42.814" height="47.449" viewBox="0 0 42.814 47.449">
  <g id="Group_10798" data-name="Group 10798" transform="translate(-6362.887 7733.272)">
    <path id="Path_8208" data-name="Path 8208" d="M148.075,67a3.357,3.357,0,0,0-3.353,3.354V92.222a3.356,3.356,0,0,0,3.353,3.353h.29v1.767a2.607,2.607,0,1,0,5.214,0V95.574h2.692V80.3a4.521,4.521,0,0,1,1.825-3.615V71.194a.912.912,0,0,1,1.825,0v4.661a4.562,4.562,0,0,1,.887-.09h4.917V71.194a.912.912,0,0,1,1.825,0v1.343a4.15,4.15,0,0,1,2.52-.863h3.225V70.356A3.356,3.356,0,0,0,169.941,67h-4.633v-8.61h.635a2.016,2.016,0,0,0,2.013-2.015V54.514a2.016,2.016,0,0,0-2.013-2.015h-13.87a2.016,2.016,0,0,0-2.013,2.015v1.865a2.017,2.017,0,0,0,2.013,2.015h.635V67h-4.634Zm4.218,24.382a.912.912,0,1,1-1.825,0V71.194a.912.912,0,1,1,1.825,0Zm2.241-32.991h8.95V67h-8.95Z" transform="translate(6218.165 -7785.771)"/>
    <path id="Path_8211" data-name="Path 8211" d="M148.075,67a3.357,3.357,0,0,0-3.353,3.354V92.222a3.356,3.356,0,0,0,3.353,3.353h.29v1.767a2.607,2.607,0,1,0,5.214,0V95.574h2.692V80.3a4.521,4.521,0,0,1,1.825-3.615V71.194a.912.912,0,0,1,1.825,0v4.661a4.562,4.562,0,0,1,.887-.09h4.917V71.194a.912.912,0,0,1,1.825,0v1.343a4.15,4.15,0,0,1,2.52-.863h3.225V70.356A3.356,3.356,0,0,0,169.941,67h-4.633v-8.61h.635a2.016,2.016,0,0,0,2.013-2.015V54.514a2.016,2.016,0,0,0-2.013-2.015h-13.87a2.016,2.016,0,0,0-2.013,2.015v1.865a2.017,2.017,0,0,0,2.013,2.015h.635V67h-4.634Zm4.218,24.382a.912.912,0,1,1-1.825,0V71.194a.912.912,0,1,1,1.825,0Zm2.241-32.991h8.95V67h-8.95Z" transform="translate(6218.165 -7785.771)" fill="#1b75bc"/>
    <path id="Path_8209" data-name="Path 8209" d="M290.434,253.87h-5.493a2.378,2.378,0,0,0-2.374,2.374v1.717h-6.888a2.739,2.739,0,0,0-2.712,2.712v16.934a2.714,2.714,0,0,0,2.712,2.71H299.7a2.713,2.713,0,0,0,2.71-2.71V260.673a2.715,2.715,0,0,0-2.71-2.712h-6.889v-1.717a2.378,2.378,0,0,0-2.375-2.375Zm.55,4.092h-6.592v-1.717a.55.55,0,0,1,.549-.549h5.493a.55.55,0,0,1,.549.549Z" transform="translate(6103.294 -7966.142)"/>
    <path id="Path_8210" data-name="Path 8210" d="M290.434,253.87h-5.493a2.378,2.378,0,0,0-2.374,2.374v1.717h-6.888a2.739,2.739,0,0,0-2.712,2.712v16.934a2.714,2.714,0,0,0,2.712,2.71H299.7a2.713,2.713,0,0,0,2.71-2.71V260.673a2.715,2.715,0,0,0-2.71-2.712h-6.889v-1.717a2.378,2.378,0,0,0-2.375-2.375Zm.55,4.092h-6.592v-1.717a.55.55,0,0,1,.549-.549h5.493a.55.55,0,0,1,.549.549Z" transform="translate(6103.294 -7966.142)" fill="#ff7f00"/>
  </g>
</svg>
