<svg xmlns="http://www.w3.org/2000/svg" width="14" height="14" viewBox="0 0 14 14">
  <path id="Path_27091" data-name="Path 27091" d="M8.542,7.016l5.234-5.235a.767.767,0,0,0,0-1.083L13.318.24a.768.768,0,0,0-1.083,0L7,5.474,1.766.24A.767.767,0,0,0,.683.24L.224.7a.766.766,0,0,0,0,1.083L5.459,7.016.224,12.251a.768.768,0,0,0,0,1.083l.459.459a.767.767,0,0,0,1.083,0L7,8.558l5.234,5.235a.76.76,0,0,0,.541.224h0a.76.76,0,0,0,.541-.224l.459-.459a.768.768,0,0,0,0-1.083Z" transform="translate(0 -0.016)" fill="#1f1f1f"/>
</svg>
