<svg xmlns="http://www.w3.org/2000/svg" width="51.001" height="50.013" viewBox="0 0 51.001 50.013">
  <g id="Payment_detail" data-name="Payment detail" transform="translate(-1635.167 2844)">
    <path id="Path_50" data-name="Path 50" d="M454.655,431.28a5.431,5.431,0,0,0-1.169-.482v2.589c1.4-.2,1.57-.9,1.57-1.432A.741.741,0,0,0,454.655,431.28Z" transform="translate(1217.863 -3234.223)"/>
    <path id="Path_52" data-name="Path 52" d="M424.22,381.829a.909.909,0,0,0,.392.805h0a3.744,3.744,0,0,0,1.037.477v-2.64a2.446,2.446,0,0,0-.986.441A1.1,1.1,0,0,0,424.22,381.829Z" transform="translate(1244.108 -3189.091)"/>
    <path id="Union_7" data-name="Union 7" d="M0,10.762A10.763,10.763,0,1,1,10.762,21.526,10.774,10.774,0,0,1,0,10.762Z" transform="translate(1659.818 -2815.512)" fill="#1b75bc"/>
    <path id="Path_54" data-name="Path 54" d="M295.014,48.331,291.339,38.9a1.88,1.88,0,0,0-2.459-1.081L262,48.3H294.67c.118,0,.229.023.344.033Z" transform="translate(1389.588 -2881.686)" fill="#1b75bc"/>
    <path id="Path_55" data-name="Path 55" d="M102.95,223.79h51v2.751h-51Z" transform="translate(1532.218 -3048.582)" fill="#ff7f00"/>
    <path id="Path_56" data-name="Path 56" d="M153.636,157.8a.838.838,0,0,1-.452-.461l-.005-.013a1.914,1.914,0,0,0-1.139-.373h-47.2a1.876,1.876,0,0,0-1.9,1.9v3.3h51v-3.3a1.9,1.9,0,0,0-.312-1.049Z" transform="translate(1532.219 -2988.647)" fill="#1b75bc"/>
    <path id="Path_57" data-name="Path 57" d="M140.613,352.235H145a1,1,0,0,0,1-1v-4.389a1,1,0,0,0-1-1h-4.389a1,1,0,0,0-1,1v4.389A1,1,0,0,0,140.613,352.235Z" transform="translate(1499.338 -3158.041)" fill="#1b75bc"/>
    <path id="Path_58" data-name="Path 58" d="M102.95,283.315a1.91,1.91,0,0,0,1.9,1.92h21.347a12.463,12.463,0,1,1,24.3,0h1.547a1.916,1.916,0,0,0,1.908-1.92V266.9h-51Zm2.085-7.268a2.7,2.7,0,0,1,2.7-2.7h4.389a2.7,2.7,0,0,1,2.7,2.7v4.389a2.7,2.7,0,0,1-2.7,2.7h-4.389a2.7,2.7,0,0,1-2.7-2.7Z" transform="translate(1532.218 -3087.242)" fill="#1b75bc"/>
    <path id="Path_59" data-name="Path 59" d="M317.536,302.042h-.053v-3.29a5.64,5.64,0,0,1,2.5,1.016l1.138-1.61a7.315,7.315,0,0,0-3.64-1.313v-.892h-1.119v.875a4.289,4.289,0,0,0-2.757,1.049,3.194,3.194,0,0,0-1.058,2.476,2.812,2.812,0,0,0,.918,2.284,7.142,7.142,0,0,0,2.9,1.243v3.395a6.065,6.065,0,0,1-3.027-1.522l-1.277,1.522a7.594,7.594,0,0,0,4.305,1.907v1.277h1.119V309.2a4.51,4.51,0,0,0,2.869-1.05,3.177,3.177,0,0,0,1.085-2.494,2.9,2.9,0,0,0-.946-2.336,7.1,7.1,0,0,0-2.956-1.277Zm-1.172-.314a3.537,3.537,0,0,1-1.33-.656,1.232,1.232,0,0,1-.35-.927,1.253,1.253,0,0,1,.446-.98,2.1,2.1,0,0,1,1.235-.464Zm2.449,5.109a2.444,2.444,0,0,1-1.33.49v-3.149a3.82,3.82,0,0,1,1.435.674,1.352,1.352,0,0,1-.105,1.986Z" transform="translate(1353.849 -3107.956)" fill="#fff"/>
  </g>
</svg>
