<svg xmlns="http://www.w3.org/2000/svg" width="35" height="44.106" viewBox="0 0 35 44.106">
  <g id="TCP" transform="translate(3614.237 3098)">
    <path id="Path_6944" data-name="Path 6944" d="M203.847,104.688a9.479,9.479,0,0,0-4.988-2.116c-1.692-.331-3.3-.639-4.652-2.254A6.994,6.994,0,0,1,192.8,97.64a7.2,7.2,0,0,0,2.524-1.9h4.745a.493.493,0,0,0,.485-.485V90.965a1.781,1.781,0,0,1-.347.028h-1.681a8.779,8.779,0,0,1-1.2,1.361c-.154.154-.3.3-.474.446h-.011a7.76,7.76,0,0,1-.793.612c-.2.143-.408.281-.612.4a6.312,6.312,0,0,1-11.976-2.794V84.7h8a.489.489,0,0,0,.408-.143l2.166-2.144v1.753a.538.538,0,0,0,.077.319l.011.011a.493.493,0,0,0,.463.215H196.1v6.167c.22-.231.413-.446.579-.656.143-.176.27-.336.386-.5a1.1,1.1,0,0,1,.1-.138V84.533a.969.969,0,0,1,.965-.965h.54a8.872,8.872,0,0,0-3.808-6.4.011.011,0,0,1-.011-.011,12.272,12.272,0,0,0-5.059-1.064h-.028a12.058,12.058,0,0,0-5.1,1.1.011.011,0,0,1-.011.011,8.879,8.879,0,0,0-3.775,6.36h.529a.969.969,0,0,1,.965.965v5.511a.969.969,0,0,1-.965.965h-2.067a2.181,2.181,0,0,1-.336-.028v4.293a.489.489,0,0,0,.485.485h4.745a7.137,7.137,0,0,0,2.535,1.9,7.059,7.059,0,0,1-1.411,2.678c-1.356,1.615-2.949,1.923-4.64,2.254a9.475,9.475,0,0,0-5,2.116,12.626,12.626,0,0,0-3.411,6.04.474.474,0,0,0,.138.485,24.73,24.73,0,0,0,14.147,6.779,23.062,23.062,0,0,0,3.2.215,21.566,21.566,0,0,0,3.164-.215,24.7,24.7,0,0,0,14.185-6.779.492.492,0,0,0,.127-.485,12.8,12.8,0,0,0-3.429-6.057Zm-14.069.3a8.26,8.26,0,0,1-5.8-2.37,6.6,6.6,0,0,0,2.127-1.67A7.981,7.981,0,0,0,187.667,98a7.186,7.186,0,0,0,2.105.309,6.907,6.907,0,0,0,2.116-.319,8.024,8.024,0,0,0,1.576,2.959,6.423,6.423,0,0,0,2.105,1.67,8.245,8.245,0,0,1-5.792,2.37Z" transform="translate(-3786.531 -3172.117)" fill="#1b75bc"/>
    <path id="Path_6945" data-name="Path 6945" d="M222.848,72.368a1.669,1.669,0,0,0,.336.028h2.078a.489.489,0,0,0,.485-.485V66.4a.486.486,0,0,0-.485-.485h-1.053c.011-.171.033-.336.05-.507a9.879,9.879,0,0,1,2.546-5.374s0-.011.011,0a8.275,8.275,0,0,1,1.2-1.08l-.066-.083a.592.592,0,0,0,.061-.044l.077.072a.564.564,0,0,0,.127-.1l.022-.022c.022-.011.038-.028.061-.038a.221.221,0,0,0,.038-.028c.011,0,.011-.011.022-.011a9.315,9.315,0,0,1,10.548.022c.1.077.22.165.375.292a.869.869,0,0,1,.127.1,7.37,7.37,0,0,1,.832.766.552.552,0,0,0,.05.038,9.821,9.821,0,0,1,2.656,5.329c.011.011.011.017.011.038.022.171.044.336.061.5,0,.044.005.083.005.127h-1.053a.482.482,0,0,0-.485.485V71.6a8.811,8.811,0,0,1-.579.783,8.46,8.46,0,0,1-.986,1.053,9.278,9.278,0,0,1-4.464,2.221,1.26,1.26,0,0,0-1.075-.6h-1.538a1.267,1.267,0,0,0,0,2.535h1.538a1.264,1.264,0,0,0,1.229-.986,10.1,10.1,0,0,0,4-1.7,8.466,8.466,0,0,0,1.218-1,9.086,9.086,0,0,0,1.284-1.5h1.923a2.331,2.331,0,0,0,.347-.028,2.281,2.281,0,0,0,1.934-2.243V68.19a2.284,2.284,0,0,0-2.282-2.27H244v-.038c0-.017-.005-.033-.005-.05-.005-.055-.011-.11-.017-.165-.011-.193-.033-.386-.055-.579-.017-.149-.044-.292-.066-.436-.033-.193-.066-.386-.11-.573-.033-.143-.072-.281-.11-.419-.05-.187-.1-.369-.165-.551-.044-.138-.1-.276-.154-.413-.066-.171-.132-.342-.21-.512-.061-.143-.132-.281-.2-.419-.077-.154-.154-.309-.237-.457s-.171-.286-.259-.424-.171-.27-.259-.4c-.1-.149-.215-.292-.325-.436-.088-.116-.176-.226-.264-.336-.127-.154-.264-.3-.4-.441-.088-.094-.171-.187-.259-.276-.154-.154-.319-.3-.485-.441-.083-.072-.16-.143-.243-.21-.187-.154-.38-.292-.573-.43-.072-.05-.138-.1-.215-.154-.215-.143-.441-.276-.667-.408-.061-.033-.116-.071-.176-.1-.248-.132-.5-.253-.76-.369l-.138-.066q-.422-.174-.86-.314a.5.5,0,0,0-.083-.028,9.151,9.151,0,0,0-.965-.248c-.011,0-.017-.005-.028-.005A10.039,10.039,0,0,0,233.622,56H233.6c-.243,0-.485.022-.722.038a10.4,10.4,0,0,0-9.639,9.848v.033h-.05a2.274,2.274,0,0,0-2.27,2.27v1.934a2.253,2.253,0,0,0,1.929,2.244Z" transform="translate(-3830.371 -3154)" fill="#ff7f00"/>
  </g>
</svg>
