<svg xmlns="http://www.w3.org/2000/svg" width="11.859" height="16" viewBox="0 0 11.859 16"><defs><style>.a{fill:#006ee3;}</style></defs><g transform="translate(-48)"><path class="a" d="M58.719,2H56.21V1.5A1.439,1.439,0,0,0,54.842,0H53.017a1.439,1.439,0,0,0-1.368,1.5V2H49.14A1.2,1.2,0,0,0,48,3.25v1a.48.48,0,0,0,.456.5H59.4a.48.48,0,0,0,.456-.5v-1A1.2,1.2,0,0,0,58.719,2Zm-6.158-.5a.48.48,0,0,1,.456-.5h1.824a.48.48,0,0,1,.456.5V2H52.561Z"/><path class="a" d="M73.507,184a.151.151,0,0,0-.142.164l.376,8.658a1.429,1.429,0,0,0,1.367,1.429h6.927a1.429,1.429,0,0,0,1.367-1.429l.376-8.658a.151.151,0,0,0-.142-.164Zm6.888,1.25a.458.458,0,1,1,.912,0v6.5a.458.458,0,1,1-.912,0Zm-2.281,0a.458.458,0,1,1,.912,0v6.5a.458.458,0,1,1-.912,0Zm-2.281,0a.458.458,0,1,1,.912,0v6.5a.458.458,0,1,1-.912,0Z" transform="translate(-24.641 -178.25)"/></g></svg>