<svg xmlns="http://www.w3.org/2000/svg" width="168" height="38" fill="none"><path fill="url(#a)" d="M9.754 37.28c-.342 0-.656-.118-.884-.354-.257-.236-.4-.56-.4-.944 0-.355.115-.68.343-.945l4.79-5.194c.258-.266.571-.413.942-.413.342 0 .656.118.884.354.257.236.4.59.4.944s-.115.68-.343.945l-4.791 5.194c-.257.266-.57.413-.941.413Z"/><path fill="url(#b)" d="M1.822 29.492c-.342 0-.656-.147-.913-.383-.256-.236-.37-.59-.37-.945 0-.354.142-.679.37-.944l4.506-4.693c.228-.265.57-.383.913-.383.342 0 .655.147.912.383.257.236.37.59.37.945 0 .354-.142.678-.37.944L2.734 29.11c-.228.236-.57.383-.912.383Z"/><path fill="url(#c)" d="M2.272 37.206c-.344 0-.659-.148-.917-.385-.258-.237-.373-.592-.373-.947s.115-.68.373-.947l9.058-9.5c.258-.266.573-.384.917-.384.344 0 .66.148.917.384.516.503.516 1.361.029 1.894l-9.058 9.5a1.344 1.344 0 0 1-.946.385Z"/><path fill="url(#d)" d="M7.747 17.822C10.67 15.188 19.699 7.76 29.559 6.724a.426.426 0 0 1 .459.503c-.344 2.486-2.265 12.548-10.777 21.515a.794.794 0 0 1-1.319-.267l-1.95-4.616-2.435.65a.65.65 0 0 1-.774-.828l.659-2.338-5.446-2.13c-.545-.208-.688-.977-.23-1.391Z"/><path fill="url(#e)" d="m34.977 26.552-9.745.178c-.344 0-.66.177-.86.503-.975 1.627-4.242 6.954-6.794 9.292-.601.563-1.519.415-1.949-.296a8.609 8.609 0 0 1-.2-.355c-.602-1.39-1.06-2.22-1.863-3.64-.688-1.213-2.064-2.93-2.867-3.965-.974-1.214-3.038-3.108-4.099-3.877-1.977-1.48-3.812-2.338-5.13-2.811-.946-.356-1.204-1.628-.459-2.338 2.15-2.102 5.819-5.564 8.112-6.748.344-.177.544-.562.544-.947l-.172-9.5c0-.769.746-1.302 1.434-.976 2.063.917 5.933 2.87 8.14 5.416.258.296.66.414 1.032.296 1.662-.504 6.392-1.865 10.978-2.131.63-.03 1.146.503 1.06 1.154-.229 2.25-.83 7.102-1.863 10.299-.114.325-.057.68.172.976 1.003 1.302 3.956 5.268 5.36 7.931.402.681-.057 1.54-.83 1.54Z"/><path fill="#FFFFFC" d="m14.798 24.185-1.262.325a.65.65 0 0 1-.774-.829l.66-2.337-5.446-2.131c-.574-.237-.717-1.006-.258-1.42C10.64 15.158 19.67 7.73 29.53 6.694a.426.426 0 0 1 .458.503c-.344 2.486-2.264 12.547-10.777 21.514a.794.794 0 0 1-1.319-.266l-1.949-4.617-1.146.356Z"/><path fill="url(#f)" d="M22.307 17.2c1.615 0 2.924-1.351 2.924-3.018 0-1.668-1.309-3.019-2.924-3.019-1.614 0-2.923 1.351-2.923 3.019 0 1.667 1.309 3.018 2.923 3.018Z"/><path fill="#3155C4" d="M52.343 15.749c-.994-.949-2.087-1.22-3.313-1.22-1.623-.033-2.683.508-2.683 1.558.033 1.084 1.126 1.49 2.75 1.66 2.319.203 5.367.745 5.333 4.064-.033 2.405-2.087 4.064-5.367 4.064-2.054 0-4.108-.474-5.764-2.37l1.391-1.897c1.193 1.32 2.949 1.897 4.44 1.897 1.259 0 2.65-.474 2.683-1.66.033-1.151-1.06-1.592-2.915-1.795-2.386-.237-5.102-1.016-5.135-3.861 0-2.845 2.882-3.929 5.234-3.929 1.955 0 3.446.44 4.87 1.728l-1.524 1.76ZM59.996 8.772c0 2.235-3.28 2.235-3.28 0 0-2.168 3.28-2.168 3.28 0Zm-2.948 3.76v12.937h2.65V12.531h-2.65ZM67.318 8.874v3.725h3.677v2.337h-3.71v6.13c0 1.355.596 2.134 1.822 2.134.497 0 1.093-.17 1.623-.44l.762 2.303c-.861.406-1.623.576-2.518.576-2.75.067-4.306-1.524-4.306-4.539v-6.13h-2.419v-2.337h2.419V9.144l2.65-.27ZM75.634 20.016c.231 1.965 1.822 3.252 4.108 3.252 1.292 0 2.882-.508 3.644-1.389l1.723 1.693c-1.292 1.457-3.479 2.202-5.434 2.202-4.14 0-6.791-2.71-6.791-6.808 0-3.929 2.683-6.706 6.626-6.706 4.075 0 6.825 2.54 6.328 7.79l-10.204-.034Zm7.686-2.269c-.166-2.032-1.624-3.116-3.744-3.116-1.921 0-3.512 1.084-3.91 3.116h7.654ZM91.171 12.531v14.462c0 3.252-1.16 4.945-3.975 4.945a4.672 4.672 0 0 1-2.65-.813l.96-2.133c.53.27 1.094.406 1.623.406 1.26-.034 1.458-.915 1.458-2.405V12.531h2.584Zm-2.948-3.793c0 2.235 3.28 2.235 3.28 0 0-2.201-3.28-2.201-3.28 0ZM104.887 12.565h2.551V25.47h-2.518l-.132-2.1c-.829 1.66-2.783 2.44-4.34 2.44-3.678.033-6.46-2.406-6.46-6.809 0-4.3 2.882-6.706 6.526-6.706 1.789 0 3.512.847 4.307 2.337l.066-2.066ZM96.637 19c0 2.676 1.856 4.302 4.109 4.302 5.433 0 5.433-8.535 0-8.535-2.286 0-4.108 1.592-4.108 4.233ZM113.666 7.18v7.383c.829-1.524 2.883-2.303 4.44-2.303 3.644 0 6.394 2.337 6.394 6.706 0 4.268-2.783 6.706-6.46 6.706-1.69 0-3.38-.643-4.374-2.303l-.165 2.032h-2.485V7.112l2.65.068Zm.133 11.82c0 2.54 1.822 4.2 4.042 4.2 2.186 0 3.975-1.626 3.975-4.2 0-2.642-1.789-4.2-3.975-4.2-2.187.034-4.042 1.728-4.042 4.2ZM129.933 7.18v7.383c.828-1.524 2.882-2.303 4.439-2.303 3.645 0 6.395 2.337 6.395 6.706 0 4.268-2.783 6.706-6.461 6.706-1.689 0-3.379-.643-4.373-2.303l-.166 2.032h-2.484V7.112l2.65.068Zm.133 11.82c0 2.54 1.822 4.2 4.041 4.2 2.187 0 3.976-1.626 3.976-4.2 0-2.642-1.789-4.2-3.976-4.2-2.186.034-4.041 1.728-4.041 4.2ZM145.537 20.016c.232 1.965 1.823 3.252 4.108 3.252 1.293 0 2.883-.508 3.645-1.389l1.722 1.693c-1.292 1.457-3.478 2.202-5.433 2.202-4.141 0-6.791-2.71-6.791-6.808 0-3.929 2.683-6.706 6.626-6.706 4.075 0 6.824 2.54 6.327 7.79l-10.204-.034Zm7.686-2.269c-.165-2.032-1.623-3.116-3.743-3.116-1.922 0-3.512 1.084-3.909 3.116h7.652ZM160.91 12.565l.165 1.694c.928-1.66 2.352-1.999 3.711-1.999 1.226 0 2.418.44 3.114 1.084l-1.193 2.337c-.629-.508-1.259-.779-2.219-.779-1.823 0-3.413 1.152-3.413 3.522v6.977h-2.65V12.497l2.485.068Z"/><defs><linearGradient id="a" x1="7.842" x2="13.904" y1="38.309" y2="32.23" gradientUnits="userSpaceOnUse"><stop offset=".188" stop-color="#25E2EA"/><stop offset="1" stop-color="#19A6D1"/></linearGradient><linearGradient id="b" x1="-.461" x2="6.947" y1="30.825" y2="23.363" gradientUnits="userSpaceOnUse"><stop offset=".396" stop-color="#E55EC4"/><stop offset="1" stop-color="#8225D0"/></linearGradient><linearGradient id="c" x1="8.771" x2="3.4" y1="29.471" y2="33.559" gradientUnits="userSpaceOnUse"><stop stop-color="#A443FD"/><stop offset="1" stop-color="#A959F3"/></linearGradient><linearGradient id="d" x1="6.789" x2="62.075" y1="31.734" y2="-32.814" gradientUnits="userSpaceOnUse"><stop offset=".102" stop-color="#fff" stop-opacity=".7"/><stop offset=".481" stop-color="#fff" stop-opacity="0"/></linearGradient><linearGradient id="e" x1="34.918" x2="8.489" y1="3.142" y2="24.773" gradientUnits="userSpaceOnUse"><stop offset=".174" stop-color="#52BFCA"/><stop offset=".916" stop-color="#7238DF"/></linearGradient><linearGradient id="f" x1="31.991" x2="10.589" y1="2.357" y2="26.801" gradientUnits="userSpaceOnUse"><stop stop-color="#52BFCA"/><stop offset="1" stop-color="#7238DF"/></linearGradient></defs></svg>