<svg xmlns="http://www.w3.org/2000/svg" width="61.14" height="57.71" viewBox="0 0 61.14 57.71">
  <g id="Group_120585" data-name="Group 120585" transform="translate(1952 -1789.695)">
    <g id="noun-sale-offer-3206753" transform="translate(-1933.797 1789.695)">
      <g id="Group_120558" data-name="Group 120558" transform="translate(0 0)">
        <g id="Group_120554" data-name="Group 120554" transform="translate(16.624 16.624)">
          <path id="Path_197552" data-name="Path 197552" d="M44.817,43.623a1.194,1.194,0,1,0,1.194,1.194A1.2,1.2,0,0,0,44.817,43.623Z" transform="translate(-43.623 -43.623)" fill="#1b75bc"/>
        </g>
        <g id="Group_120555" data-name="Group 120555" transform="translate(10.948 10.947)">
          <path id="Path_197553" data-name="Path 197553" d="M32.311,33.5a1.194,1.194,0,1,0-1.194-1.194A1.2,1.2,0,0,0,32.311,33.5Z" transform="translate(-31.118 -31.117)" fill="#1b75bc"/>
        </g>
        <g id="Group_120556" data-name="Group 120556" transform="translate(5.607 5.607)">
          <path id="Path_197554" data-name="Path 197554" d="M28.725,19.353A9.372,9.372,0,1,0,38.1,28.725,9.383,9.383,0,0,0,28.725,19.353Zm-2.838,4.432a2.1,2.1,0,1,1-2.1,2.1A2.1,2.1,0,0,1,25.887,23.785Zm-.912,9.342a.454.454,0,1,1-.643-.641l8.143-8.163a.454.454,0,1,1,.643.641Zm6.588.538a2.1,2.1,0,1,1,2.1-2.1A2.1,2.1,0,0,1,31.563,33.665Z" transform="translate(-19.353 -19.353)" fill="#1b75bc"/>
        </g>
        <g id="Group_120557" data-name="Group 120557">
          <path id="Path_197555" data-name="Path 197555" d="M35.756,21.979a4.152,4.152,0,0,1,.563-1.6,3.531,3.531,0,0,0,.581-2.4,3.6,3.6,0,0,0-1.743-1.838,3.978,3.978,0,0,1-1.244-1.053,4.124,4.124,0,0,1-.3-1.63,3.571,3.571,0,0,0-.708-2.4,3.571,3.571,0,0,0-2.4-.708,4.124,4.124,0,0,1-1.63-.3A4.046,4.046,0,0,1,27.812,8.8a3.576,3.576,0,0,0-1.834-1.743,3.531,3.531,0,0,0-2.4.581,4.152,4.152,0,0,1-1.6.563,4.153,4.153,0,0,1-1.6-.563,3.531,3.531,0,0,0-2.4-.581A3.6,3.6,0,0,0,16.142,8.8a3.978,3.978,0,0,1-1.053,1.244,4.124,4.124,0,0,1-1.63.3,3.571,3.571,0,0,0-2.4.708,3.571,3.571,0,0,0-.708,2.4,4.124,4.124,0,0,1-.3,1.63A4.046,4.046,0,0,1,8.8,16.146,3.593,3.593,0,0,0,7.059,17.98a3.531,3.531,0,0,0,.581,2.4,4.152,4.152,0,0,1,.563,1.6,4.152,4.152,0,0,1-.563,1.6,3.531,3.531,0,0,0-.581,2.4A3.6,3.6,0,0,0,8.8,27.817a3.977,3.977,0,0,1,1.244,1.053,4.124,4.124,0,0,1,.3,1.63,3.571,3.571,0,0,0,.708,2.4,3.572,3.572,0,0,0,2.4.708,4.124,4.124,0,0,1,1.63.3,4.046,4.046,0,0,1,1.058,1.244A3.576,3.576,0,0,0,17.98,36.9a1.8,1.8,0,0,0,.463.059,4.553,4.553,0,0,0,1.934-.64,4.152,4.152,0,0,1,1.6-.563,4.153,4.153,0,0,1,1.6.563,3.531,3.531,0,0,0,2.4.581,3.6,3.6,0,0,0,1.838-1.743,3.978,3.978,0,0,1,1.053-1.244,4.124,4.124,0,0,1,1.63-.3,3.571,3.571,0,0,0,2.4-.708,3.571,3.571,0,0,0,.708-2.4,4.124,4.124,0,0,1,.3-1.63,4.046,4.046,0,0,1,1.244-1.058A3.593,3.593,0,0,0,36.9,25.978a3.531,3.531,0,0,0-.581-2.4A4.152,4.152,0,0,1,35.756,21.979ZM21.979,32.259a10.28,10.28,0,1,1,10.28-10.28A10.291,10.291,0,0,1,21.979,32.259Z" transform="translate(-7 -7)" fill="#1b75bc"/>
        </g>
      </g>
    </g>
    <g id="Group_120559" data-name="Group 120559" transform="translate(-1952 1822.613)">
      <g id="Group_9251" data-name="Group 9251" transform="translate(0 0)">
        <path id="Path_37" data-name="Path 37" d="M237.692,338.5a3.934,3.934,0,0,0-5.08-1.355l-5.764,2.952a4.226,4.226,0,0,1-1.72,5.258L213.4,352.311a12.454,12.454,0,0,1-9.15,1.442l-10.6-2.539.49-2.05,10.579,2.53a10.379,10.379,0,0,0,7.6-1.2l11.73-6.957a2.121,2.121,0,0,0,.746-2.886,4.776,4.776,0,0,0-6.316-1.861l-8.508,4.366a4.151,4.151,0,0,1-3.844-.025l-5.8-3.079a12.428,12.428,0,0,0-12.383.437l3.306,15.758,1.76-.379h0a8.227,8.227,0,0,1,2.813-.112l13.168,1.444a10.236,10.236,0,0,0,7.063-1.651l21.055-14.125a2.129,2.129,0,0,0,.58-2.926Z" transform="translate(-176.901 -336.715)" fill="#1b75bc"/>
        <path id="Path_38" data-name="Path 38" d="M96.25,341.408l4.758,22.678,8.179-1.76-4.759-22.678Zm4.139,4.49-.433-2.062,2.063-.433.433,2.061Z" transform="translate(-96.25 -339.294)" fill="#1b75bc"/>
      </g>
    </g>
  </g>
</svg>
