<svg xmlns="http://www.w3.org/2000/svg" xmlns:xlink="http://www.w3.org/1999/xlink" width="58.816" height="69.014" viewBox="0 0 58.816 69.014">
  <defs>
    <filter id="Ellipse_846" x="20.028" y="30.226" width="38.788" height="38.788" filterUnits="userSpaceOnUse">
      <feOffset dy="3" input="SourceAlpha"/>
      <feGaussianBlur stdDeviation="3" result="blur"/>
      <feFlood flood-opacity="0.161"/>
      <feComposite operator="in" in2="blur"/>
      <feComposite in="SourceGraphic"/>
    </filter>
  </defs>
  <g id="Group_120584" data-name="Group 120584" transform="translate(2185 -1603)">
    <g id="Travel_protection_plan" data-name="Travel protection plan" transform="translate(-2185 1603)">
      <path id="Union_2" data-name="Union 2" d="M12.339,54.5A32.408,32.408,0,0,1,0,29.086V6.655L12.6,2.868,23.064,0,46.128,6.655V29.2a32.586,32.586,0,0,1-6.439,19.266A32.859,32.859,0,0,1,23.064,60.236,32.883,32.883,0,0,1,12.339,54.5Z" transform="translate(0 0)" fill="#1b75bc"/>
      <path id="Union_1" data-name="Union 1" d="M11.5,51.072A30.426,30.426,0,0,1,0,27.257V6.237L11.747,2.688,21.5,0l21.5,6.237V27.363A30.644,30.644,0,0,1,21.5,56.448,30.608,30.608,0,0,1,11.5,51.072Z" transform="translate(1.449 1.843)" fill="#fff"/>
      <path id="Union_3" data-name="Union 3" d="M10.683,47.18A28.056,28.056,0,0,1,0,25.18V5.761L10.908,2.483,19.968,0,39.936,5.761V25.278a28.211,28.211,0,0,1-5.575,16.679,28.451,28.451,0,0,1-14.393,10.19A28.478,28.478,0,0,1,10.683,47.18Z" transform="translate(3.099 3.994)" fill="#1b75bc"/>
    </g>
    <g transform="matrix(1, 0, 0, 1, -2185, 1603)" filter="url(#Ellipse_846)">
      <circle id="Ellipse_846-2" data-name="Ellipse 846" cx="10.394" cy="10.394" r="10.394" transform="translate(29.03 36.23)" fill="#fff"/>
    </g>
    <path id="Path_197551" data-name="Path 197551" d="M316.617,301.021h-.044v-2.738a4.694,4.694,0,0,1,2.082.845l.947-1.34a6.089,6.089,0,0,0-3.029-1.093v-.743h-.932v.728a3.569,3.569,0,0,0-2.294.873,2.658,2.658,0,0,0-.881,2.061,2.34,2.34,0,0,0,.764,1.9,5.943,5.943,0,0,0,2.411,1.034v2.825a5.048,5.048,0,0,1-2.519-1.267l-1.063,1.267a6.32,6.32,0,0,0,3.583,1.587v1.063h.932v-1.047a3.753,3.753,0,0,0,2.388-.874,2.643,2.643,0,0,0,.9-2.075,2.412,2.412,0,0,0-.787-1.944,5.912,5.912,0,0,0-2.46-1.063Zm-.975-.262a2.943,2.943,0,0,1-1.107-.546,1.025,1.025,0,0,1-.291-.772,1.043,1.043,0,0,1,.371-.815,1.743,1.743,0,0,1,1.028-.386Zm2.038,4.252a2.035,2.035,0,0,1-1.107.408V302.8a3.179,3.179,0,0,1,1.194.561,1.125,1.125,0,0,1-.088,1.653Z" transform="translate(-2461.503 1347.654)" fill="#1b75bc"/>
    <g id="noun-flight-1606540" transform="translate(-2172.764 1620.883)">
      <path id="Path_21" data-name="Path 21" d="M257.342,168.025,249.2,163.31V157.8a2.454,2.454,0,0,0-2.4-2.264,2.3,2.3,0,0,0-2.295,2.3l.021,5.494-8.215,4.756-.073.073a.7.7,0,0,0-.208.519v1.672a.651.651,0,0,0,.312.592.783.783,0,0,0,.717.125l7.529-2.087v5.442l-2.368,1.62-.1.1a.677.677,0,0,0-.208.488V178.4a.732.732,0,0,0,.332.623.8.8,0,0,0,.717.1l3.032-1.09a2.856,2.856,0,0,1,1.838-.021l3.022,1.007a.722.722,0,0,0,.675-.1c.052-.052.1-.073.125-.1a.7.7,0,0,0,.208-.519v-1.672a.732.732,0,0,0-.332-.623l-2.347-1.651v-5.411l7.477,2.087a.8.8,0,0,0,.717-.1c.021-.021.1-.052.1-.073a.7.7,0,0,0,.208-.519v-1.672a.834.834,0,0,0-.343-.633Z" transform="translate(-236.032 -155.532)" fill="#fff"/>
    </g>
  </g>
</svg>
