<svg xmlns="http://www.w3.org/2000/svg" width="60.993" height="56.991" viewBox="0 0 60.993 56.991">
  <g id="noun-members-5677798_1_" data-name="noun-members-5677798 (1)" transform="translate(-2.392 -5.6)">
    <g id="Group_120569" data-name="Group 120569" transform="translate(2.392 5.6)">
      <g id="Group_120565" data-name="Group 120565">
        <g id="Group_120561" data-name="Group 120561" transform="translate(0 14.618)">
          <path id="Path_197556" data-name="Path 197556" d="M24.644,31.99a10.845,10.845,0,0,0-5.385,8.078l-.577,4.68q-2.116.192-4.231.192a52.715,52.715,0,0,1-10.707-1.09A1.825,1.825,0,0,1,2.4,41.928l.833-6.8A8.421,8.421,0,0,1,8.36,28.4a9.577,9.577,0,0,0,6.027,2.116A9.824,9.824,0,0,0,20.413,28.4,8.1,8.1,0,0,1,24.644,31.99Z" transform="translate(-2.392 -28.4)" fill="#1b74bb"/>
        </g>
        <g id="Group_120562" data-name="Group 120562" transform="translate(4.941)">
          <path id="Path_197557" data-name="Path 197557" d="M17.281,5.6a7.181,7.181,0,1,0,7.181,7.181A7.252,7.252,0,0,0,17.281,5.6Z" transform="translate(-10.1 -5.6)" fill="#1b74bb"/>
        </g>
        <g id="Group_120563" data-name="Group 120563" transform="translate(38.857 14.618)">
          <path id="Path_197558" data-name="Path 197558" d="M83.772,43.851a51.618,51.618,0,0,1-10.643,1.09c-1.41,0-2.885-.064-4.231-.192l-.577-4.68A10.886,10.886,0,0,0,63,31.99a8.323,8.323,0,0,1,4.1-3.59,9.577,9.577,0,0,0,6.027,2.116A9.684,9.684,0,0,0,79.156,28.4a8.186,8.186,0,0,1,5.129,6.732l.833,6.8A1.709,1.709,0,0,1,83.772,43.851Z" transform="translate(-63 -28.4)" fill="#1b74bb"/>
        </g>
        <g id="Group_120564" data-name="Group 120564" transform="translate(41.806)">
          <path id="Path_197559" data-name="Path 197559" d="M74.781,5.6a7.181,7.181,0,1,0,7.181,7.181A7.252,7.252,0,0,0,74.781,5.6Z" transform="translate(-67.6 -5.6)" fill="#1b74bb"/>
        </g>
      </g>
      <g id="Group_120566" data-name="Group 120566" transform="translate(18.464 19.811)">
        <path id="Path_197560" data-name="Path 197560" d="M53.957,51.951a51.784,51.784,0,0,1-10.707,1.09,52.246,52.246,0,0,1-10.707-1.09A1.825,1.825,0,0,1,31.2,50.028l.833-6.8A8.421,8.421,0,0,1,37.16,36.5a9.577,9.577,0,0,0,6.027,2.116A9.824,9.824,0,0,0,49.213,36.5a8.186,8.186,0,0,1,5.129,6.732l.833,6.8A1.622,1.622,0,0,1,53.957,51.951Z" transform="translate(-31.192 -36.5)" fill="#1b74bb"/>
      </g>
      <g id="Group_120567" data-name="Group 120567" transform="translate(23.342 5.257)">
        <path id="Path_197561" data-name="Path 197561" d="M45.981,13.8a7.181,7.181,0,1,0,7.181,7.181A7.169,7.169,0,0,0,45.981,13.8Z" transform="translate(-38.8 -13.8)" fill="#1b74bb"/>
      </g>
      <g id="Group_120568" data-name="Group 120568" transform="translate(3.041 34.781)">
        <path id="Path_197562" data-name="Path 197562" d="M11.472,70.589h0l-1.218,5.193a.825.825,0,0,0,1.218.9l4.552-2.757h0l4.552,2.757a.822.822,0,0,0,1.218-.9l-1.282-5.193h0l4.039-3.462a.811.811,0,0,0-.449-1.41l-5.321-.449h0l-2.052-4.937a.806.806,0,0,0-1.475,0L13.2,65.267l-5.321.449a.8.8,0,0,0-.449,1.41Z" transform="translate(-7.135 -59.85)" fill="#1b74bb"/>
        <path id="Path_197563" data-name="Path 197563" d="M69.572,70.589h0l-1.218,5.193a.825.825,0,0,0,1.218.9l4.552-2.757h0l4.552,2.757a.822.822,0,0,0,1.218-.9l-1.218-5.193h0l4.039-3.462a.811.811,0,0,0-.449-1.41l-5.321-.449h0l-2.052-4.937a.806.806,0,0,0-1.475,0l-2.052,4.937-5.385.449a.8.8,0,0,0-.449,1.41Z" transform="translate(-27.986 -59.85)" fill="#1b74bb"/>
      </g>
      <path id="Path_197564" data-name="Path 197564" d="M40.508,78.789h0L39.29,83.982a.825.825,0,0,0,1.218.9l4.552-2.757h0l4.552,2.757a.822.822,0,0,0,1.218-.9l-1.218-5.193h0l4.039-3.462a.811.811,0,0,0-.449-1.41l-5.321-.449h0l-2.052-4.937a.806.806,0,0,0-1.475,0L42.3,73.467l-5.321.449a.8.8,0,0,0-.449,1.41Z" transform="translate(-14.538 -28.012)" fill="#1b74bb"/>
    </g>
  </g>
</svg>
