<svg xmlns="http://www.w3.org/2000/svg" xmlns:xlink="http://www.w3.org/1999/xlink" width="220.543" height="146.367" viewBox="0 0 220.543 146.367">
  <defs>
    <clipPath id="clip-path">
      <rect id="Rectangle_16" data-name="Rectangle 16" width="1.555" height="29.108" fill="#fff"/>
    </clipPath>
    <clipPath id="clip-path-2">
      <rect id="Rectangle_20" data-name="Rectangle 20" width="50.398" height="54.971" fill="#fff"/>
    </clipPath>
  </defs>
  <g id="Group_5792" data-name="Group 5792" transform="translate(-3530.222 -3842.093)">
    <path id="Path_13205" data-name="Path 13205" d="M671.885,426.244h-.014a25.263,25.263,0,0,1-3.242-.209.378.378,0,1,1,.1-.75,24.535,24.535,0,0,0,3.144.2h.014a.378.378,0,1,1,0,.756m4.478-.409a.378.378,0,0,1-.068-.75,24.116,24.116,0,0,0,3.067-.778.378.378,0,0,1,.234.719,24.889,24.889,0,0,1-3.164.8.4.4,0,0,1-.069.006m-12.072-.782a.374.374,0,0,1-.117-.018,24.854,24.854,0,0,1-3.034-1.209.378.378,0,0,1,.325-.682,24.115,24.115,0,0,0,2.942,1.172.378.378,0,0,1-.116.738m19.317-1.787a.378.378,0,0,1-.181-.71,24.257,24.257,0,0,0,2.674-1.691.378.378,0,1,1,.445.611,25.061,25.061,0,0,1-2.757,1.744.376.376,0,0,1-.18.046m-26.171-1.7a.377.377,0,0,1-.222-.072,25.172,25.172,0,0,1-2.51-2.087.378.378,0,0,1,.52-.549,24.406,24.406,0,0,0,2.434,2.024.378.378,0,0,1-.223.684m32.265-2.981a.378.378,0,0,1-.274-.638,24.4,24.4,0,0,0,2.025-2.433.378.378,0,0,1,.611.445,25.143,25.143,0,0,1-2.088,2.509.377.377,0,0,1-.274.118M652,416.13a.378.378,0,0,1-.306-.155,25.09,25.09,0,0,1-1.746-2.756.378.378,0,0,1,.664-.362,24.342,24.342,0,0,0,1.693,2.673.378.378,0,0,1-.305.6m42.065-3.883a.378.378,0,0,1-.341-.541,24.138,24.138,0,0,0,1.174-2.941.378.378,0,1,1,.719.234,24.882,24.882,0,0,1-1.211,3.033.378.378,0,0,1-.341.215M648.5,409.287a.378.378,0,0,1-.359-.261,24.858,24.858,0,0,1-.8-3.163.378.378,0,0,1,.743-.138,24.169,24.169,0,0,0,.78,3.067.378.378,0,0,1-.36.5m47.746-4.414a.353.353,0,0,1-.049,0,.378.378,0,0,1-.326-.424,24.553,24.553,0,0,0,.2-3.158v-.056a.378.378,0,0,1,.377-.379h0a.378.378,0,0,1,.378.377v.059a25.278,25.278,0,0,1-.211,3.256.378.378,0,0,1-.374.329m-48.95-3.179a.378.378,0,0,1-.378-.378v-.029a25.27,25.27,0,0,1,.207-3.227.378.378,0,0,1,.75.1,24.546,24.546,0,0,0-.2,3.13v.029a.378.378,0,0,1-.378.378m48.739-4.563a.378.378,0,0,1-.371-.309,24.125,24.125,0,0,0-.784-3.066.378.378,0,1,1,.719-.235,24.839,24.839,0,0,1,.808,3.162.378.378,0,0,1-.372.447M648.479,394.1a.378.378,0,0,1-.36-.495,24.847,24.847,0,0,1,1.207-3.035.378.378,0,1,1,.683.325,24.092,24.092,0,0,0-1.17,2.942.379.379,0,0,1-.36.262m44.972-4.208a.378.378,0,0,1-.332-.2,24.278,24.278,0,0,0-1.7-2.67.378.378,0,1,1,.611-.446,25.084,25.084,0,0,1,1.749,2.754.378.378,0,0,1-.331.56m-41.486-2.647a.378.378,0,0,1-.306-.6,25.167,25.167,0,0,1,2.085-2.511.378.378,0,1,1,.549.52,24.369,24.369,0,0,0-2.022,2.435.378.378,0,0,1-.306.156m36.79-3.44a.377.377,0,0,1-.26-.1,24.4,24.4,0,0,0-2.437-2.021.378.378,0,0,1,.444-.612,25.187,25.187,0,0,1,2.512,2.084.378.378,0,0,1-.26.653m-31.359-2a.378.378,0,0,1-.223-.683,25.082,25.082,0,0,1,2.755-1.747.378.378,0,1,1,.362.664,24.327,24.327,0,0,0-2.672,1.695.376.376,0,0,1-.223.073m25.017-2.343a.377.377,0,0,1-.162-.037,24.125,24.125,0,0,0-2.943-1.169.378.378,0,0,1,.232-.72,24.915,24.915,0,0,1,3.036,1.205.378.378,0,0,1-.163.72m-18.177-1.16a.378.378,0,0,1-.117-.737,24.848,24.848,0,0,1,3.163-.807.378.378,0,0,1,.138.743,24.1,24.1,0,0,0-3.066.782.382.382,0,0,1-.118.019m10.8-1.007a.385.385,0,0,1-.049,0,24.514,24.514,0,0,0-3.116-.2h-.043a.378.378,0,1,1,0-.756h.042a25.308,25.308,0,0,1,3.214.205.378.378,0,0,1-.048.753" transform="translate(3017.124 3543.607)" fill="#739cd2"/>
    <path id="Path_13206" data-name="Path 13206" d="M783.1,252.262a.441.441,0,0,1-.39-.646,14.468,14.468,0,0,1,1.214-1.921.441.441,0,1,1,.707.528,13.559,13.559,0,0,0-1.14,1.8.441.441,0,0,1-.391.236" transform="translate(2909.46 3644.189)" fill="#739cd2"/>
    <path id="Path_13207" data-name="Path 13207" d="M798.635,217.953a.441.441,0,0,1-.293-.771,16.277,16.277,0,0,1,3.584-2.413.441.441,0,1,1,.392.79,15.4,15.4,0,0,0-3.39,2.282.44.44,0,0,1-.293.111m22.381-1.653h-.148a12.92,12.92,0,0,1-1.868-.17.441.441,0,1,1,.14-.871,12.04,12.04,0,0,0,1.742.159,9.42,9.42,0,0,0,2.274-.249.441.441,0,1,1,.2.859,10.307,10.307,0,0,1-2.34.273m-4.874-.86a.433.433,0,0,1-.122-.018c-.336-.1-.677-.2-1.006-.3-.99-.3-2.013-.6-3.026-.818a.441.441,0,1,1,.185-.862c1.047.225,2.087.535,3.093.835.328.1.667.2,1,.295a.441.441,0,0,1-.122.865m9.912-.489a.441.441,0,0,1-.215-.827,11.147,11.147,0,0,0,3.106-2.569.441.441,0,0,1,.677.566,12.036,12.036,0,0,1-3.355,2.775.44.44,0,0,1-.214.056m-21.125-.422a.441.441,0,0,1-.118-.866,15.422,15.422,0,0,1,4.287-.574.441.441,0,0,1,0,.882h0a14.577,14.577,0,0,0-4.042.541.435.435,0,0,1-.119.016" transform="translate(2897.136 3674.425)" fill="#739cd2"/>
    <path id="Path_13208" data-name="Path 13208" d="M954.493,191.91a.441.441,0,0,1-.4-.619,9.375,9.375,0,0,0,.63-2.005.441.441,0,1,1,.866.167,10.242,10.242,0,0,1-.69,2.194.441.441,0,0,1-.4.263" transform="translate(2773.518 3692.246)" fill="#b1bcee"/>
    <path id="Path_13209" data-name="Path 13209" d="M48.076,229.673a.461.461,0,0,1-.207-.049c-1.139-.57-2.461-1.237-3.745-1.943a.463.463,0,0,1,.447-.811c1.269.7,2.582,1.361,3.712,1.926a.463.463,0,0,1-.207.877m-8.445-4.945a.462.462,0,0,1-.281-.1,21.274,21.274,0,0,1-3.145-2.91.463.463,0,0,1,.7-.609,20.346,20.346,0,0,0,3.011,2.783.463.463,0,0,1-.282.831m.878-2.27a.463.463,0,0,1-.1-.916,10.549,10.549,0,0,0,1.389-.4,9.638,9.638,0,0,0,2.262-1.2.463.463,0,0,1,.536.756,10.566,10.566,0,0,1-2.48,1.31,11.494,11.494,0,0,1-1.511.437.459.459,0,0,1-.1.011m-5.552-.106a.463.463,0,0,1-.108-.013,14.867,14.867,0,0,1-4.009-1.609.463.463,0,0,1,.465-.8,13.951,13.951,0,0,0,3.759,1.509.463.463,0,0,1-.107.914m-8.094-5.2a.462.462,0,0,1-.36-.172,18.853,18.853,0,0,1-2.3-3.631.463.463,0,1,1,.833-.405,17.932,17.932,0,0,0,2.182,3.453.463.463,0,0,1-.36.755m6.889-.066a.463.463,0,0,1-.443-.328,12.6,12.6,0,0,1-.538-3.67c0-.212.005-.426.016-.637a.463.463,0,1,1,.925.046c-.01.2-.014.4-.014.591a11.673,11.673,0,0,0,.5,3.4.463.463,0,0,1-.443.6m14.131-.544a.463.463,0,0,1-.42-.659,8.783,8.783,0,0,0,.854-3.725q0-.069,0-.138a.463.463,0,0,1,.455-.471h.008a.463.463,0,0,1,.463.455c0,.051,0,.1,0,.154a9.7,9.7,0,0,1-.94,4.116.463.463,0,0,1-.42.268m-25.024-8.231a.463.463,0,0,1-.453-.372,25.347,25.347,0,0,1-.482-4.247.463.463,0,1,1,.926-.027,24.431,24.431,0,0,0,.464,4.091.463.463,0,0,1-.455.554m12.007-.67a.463.463,0,0,1-.388-.716,7.617,7.617,0,0,1,3.322-2.89.463.463,0,0,1,.374.847,6.707,6.707,0,0,0-2.92,2.548.463.463,0,0,1-.388.21m11.933-.28a.462.462,0,0,1-.352-.162,8.373,8.373,0,0,0-3.188-2.319.463.463,0,1,1,.349-.858,9.3,9.3,0,0,1,3.543,2.575.463.463,0,0,1-.352.764m-24.018-8.8a.473.473,0,0,1-.074-.006.463.463,0,0,1-.384-.531,39.939,39.939,0,0,1,.9-4.15.463.463,0,0,1,.894.243,38.973,38.973,0,0,0-.883,4.053.463.463,0,0,1-.457.39m2.655-9.415a.464.464,0,0,1-.432-.629c.469-1.219,1-2.495,1.616-3.9a.463.463,0,0,1,.848.373c-.613,1.392-1.136,2.655-1.6,3.86a.463.463,0,0,1-.433.3m3.95-8.966a.464.464,0,0,1-.418-.662c.464-.974.94-1.963,1.4-2.919l.418-.869a.463.463,0,0,1,.835.4L31.2,177c-.46.955-.936,1.943-1.4,2.915a.463.463,0,0,1-.418.264m4.211-8.85a.463.463,0,0,1-.421-.656q.149-.326.293-.642-.794.066-1.58.1a.463.463,0,1,1-.039-.925c.679-.029,1.365-.076,2.054-.142.344-.773.662-1.507.961-2.219a.463.463,0,0,1,.854.359c-.237.565-.487,1.143-.751,1.744q.506-.062,1.012-.138a.463.463,0,1,1,.136.916q-.792.118-1.585.2-.248.551-.513,1.13a.464.464,0,0,1-.421.27m-7.318-1.384-.052,0a33.933,33.933,0,0,1-4.191-.735.463.463,0,0,1,.218-.9,32.979,32.979,0,0,0,4.077.715.463.463,0,0,1-.051.923m15.238-1.4a.463.463,0,0,1-.127-.909c1.32-.376,2.645-.821,3.94-1.323a.463.463,0,1,1,.335.864c-1.321.512-2.674.966-4.021,1.35a.467.467,0,0,1-.127.018m-24.669-1.12a.461.461,0,0,1-.189-.041,28.239,28.239,0,0,1-3.747-2.041.463.463,0,0,1,.5-.778,27.336,27.336,0,0,0,3.623,1.974.463.463,0,0,1-.19.886m33.738-2.55a.463.463,0,0,1-.218-.872c1.163-.618,2.343-1.3,3.609-2.085a.463.463,0,1,1,.488.787c-1.283.8-2.481,1.488-3.662,2.116a.462.462,0,0,1-.217.054M37.3,162.259a.463.463,0,0,1-.438-.613c.466-1.36.876-2.7,1.217-3.985a.463.463,0,1,1,.9.238c-.346,1.3-.762,2.666-1.235,4.047a.463.463,0,0,1-.438.313m-28.518-.317a.46.46,0,0,1-.321-.13,29.677,29.677,0,0,1-2.851-3.17.463.463,0,0,1,.731-.568A28.8,28.8,0,0,0,9.1,161.146a.463.463,0,0,1-.321.8m50.111-2.255a.463.463,0,0,1-.264-.844c1.015-.7,2.043-1.428,3.036-2.13l.4-.281a.463.463,0,1,1,.534.757l-.4.281c-1,.7-2.024,1.429-3.043,2.135a.462.462,0,0,1-.263.083M3,154.087a.463.463,0,0,1-.416-.258,25.993,25.993,0,0,1-1.572-3.971.463.463,0,0,1,.887-.268,25.077,25.077,0,0,0,1.516,3.829.463.463,0,0,1-.415.668m63.931,0a.463.463,0,0,1-.258-.848c1.283-.858,2.447-1.6,3.558-2.271a.463.463,0,0,1,.478.793c-1.1.663-2.251,1.4-3.521,2.248a.463.463,0,0,1-.257.078m-27.283-1.322a.471.471,0,0,1-.066,0,.463.463,0,0,1-.393-.524c.04-.282.077-.567.111-.847a30.14,30.14,0,0,0,.213-3.277.463.463,0,0,1,.463-.458h0a.463.463,0,0,1,.458.468,31.011,31.011,0,0,1-.219,3.378c-.035.286-.073.578-.114.866a.463.463,0,0,1-.458.4M75.4,149.177a.463.463,0,0,1-.194-.884,40.635,40.635,0,0,1,3.943-1.578.463.463,0,1,1,.3.877,39.692,39.692,0,0,0-3.853,1.542.462.462,0,0,1-.194.043m22.968-1.161a.461.461,0,0,1-.211-.052,18.279,18.279,0,0,0-3.823-1.444.463.463,0,0,1,.23-.9,19.2,19.2,0,0,1,4.017,1.518.463.463,0,0,1-.212.875m-13.646-1.77a.463.463,0,0,1-.074-.92,27.764,27.764,0,0,1,4.251-.369.463.463,0,0,1,.006.926,26.832,26.832,0,0,0-4.109.357.459.459,0,0,1-.075.006M.491,144.687a.463.463,0,0,1-.462-.44C.01,143.872,0,143.492,0,143.118c0-.7.033-1.4.1-2.085.034-.355.079-.714.133-1.069a.463.463,0,0,1,.916.141c-.052.337-.095.679-.127,1.016-.063.659-.095,1.331-.095,2,0,.358.009.722.028,1.082a.463.463,0,0,1-.439.486H.491M39.551,143a.463.463,0,0,1-.456-.388,31.6,31.6,0,0,0-.934-4.03.463.463,0,0,1,.887-.268,32.538,32.538,0,0,1,.962,4.149.463.463,0,0,1-.382.532.471.471,0,0,1-.076.006M2.33,135.164a.463.463,0,0,1-.419-.66A22.2,22.2,0,0,1,4.1,130.821a.463.463,0,0,1,.748.547,21.277,21.277,0,0,0-2.1,3.529.464.464,0,0,1-.42.267m34.157-1.429a.463.463,0,0,1-.41-.246,24.234,24.234,0,0,0-2.222-3.465.463.463,0,1,1,.733-.566,25.19,25.19,0,0,1,2.308,3.6.463.463,0,0,1-.409.68M8.3,127.493a.463.463,0,0,1-.295-.82,21.943,21.943,0,0,1,3.551-2.395.463.463,0,1,1,.439.816,21.024,21.024,0,0,0-3.4,2.294.462.462,0,0,1-.295.106m21.949-1.215a.461.461,0,0,1-.275-.091,17.122,17.122,0,0,0-3.539-2.025.463.463,0,1,1,.36-.853,18.043,18.043,0,0,1,3.73,2.135.463.463,0,0,1-.276.835M17.02,123.234a.463.463,0,0,1-.091-.917,17.181,17.181,0,0,1,3.384-.342c.3,0,.608.008.909.025a.463.463,0,0,1-.051.925c-.283-.016-.572-.024-.857-.024a16.264,16.264,0,0,0-3.2.324.465.465,0,0,1-.092.009" transform="translate(3530.222 3745.349)" fill="#739cd2"/>
    <path id="Path_13210" data-name="Path 13210" d="M997.5,62.741l-6.372,20.694-1.021,3.316-2.911-2.456-7.608-6.419Z" transform="translate(2753.265 3792.331)" fill="#fff"/>
    <path id="Path_13211" data-name="Path 13211" d="M942.684,62.741,920.547,75.526l-10.07-3.337Z" transform="translate(2808.08 3792.331)" fill="#fff"/>
    <path id="Path_13212" data-name="Path 13212" d="M981.294,62.741,963.383,77.876l-3.442,6.883-.784-9.232Z" transform="translate(2769.469 3792.331)" fill="#fff"/>
    <path id="Path_13213" data-name="Path 13213" d="M324.308,1.555V44.136H321.2V1.555a1.555,1.555,0,1,1,3.11,0" transform="translate(3275.464 3842.093)" fill="#fff"/>
    <g id="Group_5788" data-name="Group 5788" transform="translate(3598.217 3842.093)">
      <g id="Group_5787" data-name="Group 5787" clip-path="url(#clip-path)">
        <path id="Path_13214" data-name="Path 13214" d="M330.269,1.555V29.108h-1.555V0a1.555,1.555,0,0,1,1.555,1.555" transform="translate(-328.714)" fill="#fff"/>
      </g>
    </g>
    <path id="Path_13215" data-name="Path 13215" d="M354.868,20.91H336.231V10h18.637a.35.35,0,0,1,.231.612l-5.522,4.843L355.1,20.3a.35.35,0,0,1-.235.608" transform="translate(3263.541 3834.162)" fill="#ff7f00"/>
    <path id="Path_13216" data-name="Path 13216" d="M380.674,148.907v42.3H257.766v-42.3a26.394,26.394,0,0,1,2.731-11.721,26.932,26.932,0,0,1,2.23-3.725,27.258,27.258,0,0,1,2.128-2.618,27.9,27.9,0,0,1,20.333-8.964c.085,0,.172,0,.257,0h67.549c.092,0,.183,0,.273,0a27.679,27.679,0,0,1,25.47,17.078l.012.029a26.413,26.413,0,0,1,1.925,9.921" transform="translate(3325.775 3745.426)" fill="#fff"/>
    <path id="Path_13217" data-name="Path 13217" d="M313.125,148.908v42.3H257.766v-42.3a26.469,26.469,0,0,1,4.961-15.444,28.105,28.105,0,0,1,42.29-3.668,26.63,26.63,0,0,1,8.108,19.113" transform="translate(3325.775 3745.425)" fill="#fff"/>
    <rect id="Rectangle_17" data-name="Rectangle 17" width="67.549" height="31.547" transform="translate(3638.9 3905.091)" fill="#e9e9e9"/>
    <rect id="Rectangle_18" data-name="Rectangle 18" width="12.191" height="48.674" transform="translate(3638.9 3936.638)" fill="#fff"/>
    <rect id="Rectangle_19" data-name="Rectangle 19" width="12.19" height="8.593" transform="translate(3638.901 3936.638)" fill="#e1e1e1"/>
    <path id="Path_13218" data-name="Path 13218" d="M737.681,407.859a.581.581,0,0,1,.581-.581v-.52a.581.581,0,1,1,0-1.163v-.52a.581.581,0,1,1,0-1.163v-.52a.581.581,0,1,1,0-1.163v-.52a.581.581,0,1,1,0-1.163V400.1h-.451s0,.005,0,.008a.581.581,0,0,1-1.163,0s0-.006,0-.008h-.521s0,.005,0,.008a.581.581,0,1,1-1.163,0s0-.006,0-.008h-.521s0,.005,0,.008a.581.581,0,1,1-1.163,0s0-.006,0-.008h-.521s0,.005,0,.008a.581.581,0,1,1-1.163,0s0-.006,0-.008h-.521s0,.005,0,.008a.581.581,0,1,1-1.163,0s0-.006,0-.008h-.451v.451a.581.581,0,0,1,0,1.163v.52a.581.581,0,0,1,0,1.163v.52a.581.581,0,0,1,0,1.163v.52a.581.581,0,0,1,0,1.163v.52a.581.581,0,0,1,0,1.163v.451h.45a.581.581,0,1,1,1.163,0h.52a.581.581,0,1,1,1.163,0h.52a.581.581,0,1,1,1.163,0h.52a.581.581,0,1,1,1.163,0h.52a.581.581,0,1,1,1.163,0h.451v-.451a.581.581,0,0,1-.581-.581" transform="translate(2951.647 3524.758)" fill="#ff7f00"/>
    <path id="Path_13219" data-name="Path 13219" d="M801.825,407.859a.582.582,0,0,1,.582-.581v-.52a.581.581,0,1,1,0-1.163v-.52a.581.581,0,1,1,0-1.163v-.52a.581.581,0,1,1,0-1.163v-.52a.581.581,0,1,1,0-1.163V400.1h-.451s0,.005,0,.008a.581.581,0,1,1-1.163,0s0-.006,0-.008h-.521s0,.005,0,.008a.581.581,0,1,1-1.163,0s0-.006,0-.008h-.521s0,.005,0,.008a.581.581,0,1,1-1.163,0s0-.006,0-.008h-.521s0,.005,0,.008a.581.581,0,1,1-1.163,0s0-.006,0-.008h-.521s0,.005,0,.008a.581.581,0,1,1-1.163,0s0-.006,0-.008h-.451v.451a.581.581,0,0,1,0,1.163v.52a.581.581,0,0,1,0,1.163v.52a.581.581,0,0,1,0,1.163v.52a.581.581,0,0,1,0,1.163v.52a.581.581,0,0,1,0,1.163v.451h.45a.581.581,0,1,1,1.163,0h.52a.581.581,0,1,1,1.163,0h.52a.581.581,0,1,1,1.163,0h.52a.581.581,0,1,1,1.163,0h.52a.581.581,0,1,1,1.163,0h.451v-.451a.582.582,0,0,1-.582-.581" transform="translate(2900.771 3524.758)" fill="#ff7f00"/>
    <g id="Group_5791" data-name="Group 5791" transform="translate(3588.503 3867.304)">
      <g id="Group_5790" data-name="Group 5790" clip-path="url(#clip-path-2)">
        <path id="Path_13220" data-name="Path 13220" d="M324.041,129.8a28.106,28.106,0,0,0-42.29,3.668l50.4,43.386V148.909a26.63,26.63,0,0,0-8.107-19.113" transform="translate(-281.751 -121.88)" fill="#fff"/>
      </g>
    </g>
    <path id="Path_13221" data-name="Path 13221" d="M242.915,149.389a26.826,26.826,0,0,0-2.218-10.726,27.389,27.389,0,0,0-6.037-8.745,28.063,28.063,0,0,0-8.936-5.884,28.747,28.747,0,0,0-24.13,1.058,28.15,28.15,0,0,0-9.863,8.555,26.936,26.936,0,0,0-5.056,15.741v35.845H168.69v5.979h74.225Zm-51.871,0a22.591,22.591,0,0,1,4.242-13.2,23.766,23.766,0,0,1,8.327-7.22,24.292,24.292,0,0,1,11.182-2.719,23.91,23.91,0,0,1,16.813,6.8,22.7,22.7,0,0,1,6.938,16.346v35.845h-47.5Z" transform="translate(3396.426 3745.425)" fill="#c2c2c2"/>
    <path id="Path_13222" data-name="Path 13222" d="M751.969,82.718A11.872,11.872,0,1,1,740.1,70.846a11.872,11.872,0,0,1,11.872,11.872" transform="translate(2952.633 3785.902)" fill="#374db2"/>
    <path id="Path_13223" data-name="Path 13223" d="M768.013,107.13v-2.775a4.723,4.723,0,0,0-4.723-4.723h0a4.723,4.723,0,0,0-4.723,4.723v2.775a5.429,5.429,0,0,1-1.2,3.376h11.838a5.428,5.428,0,0,1-1.2-3.376" transform="translate(2929.515 3763.07)" fill="#fff"/>
    <path id="Path_13224" data-name="Path 13224" d="M779.151,157.008h0a1.783,1.783,0,0,1-1.783-1.783h3.565a1.783,1.783,0,0,1-1.783,1.783" transform="translate(2913.655 3718.977)" fill="#fff"/>
    <path id="Path_13225" data-name="Path 13225" d="M780.439,92.639a1.447,1.447,0,1,0,1.447,1.447,1.447,1.447,0,0,0-1.447-1.447m0,2.316a.869.869,0,1,1,.869-.869.869.869,0,0,1-.869.869" transform="translate(2912.366 3768.617)" fill="#fff"/>
    <path id="Path_13226" data-name="Path 13226" d="M732.223,88.771a13.926,13.926,0,1,1,9.847-4.079,13.835,13.835,0,0,1-9.847,4.079m0-27.1a13.17,13.17,0,1,0,13.169,13.17,13.184,13.184,0,0,0-13.169-13.17" transform="translate(2960.507 3793.775)" fill="#739cd2"/>
    <path id="Path_13234" data-name="Path 13234" d="M78.32,695.519H76.029a1.544,1.544,0,0,1-1.544-1.544v-.06a1.544,1.544,0,0,1,1.544-1.544H78.32a1.544,1.544,0,0,1,1.544,1.544v.06a1.544,1.544,0,0,1-1.544,1.544" transform="translate(3471.144 3292.941)" fill="#211f44"/>
    <path id="Path_13235" data-name="Path 13235" d="M291.939,695.519H112.773a1.544,1.544,0,0,1-1.544-1.544v-.06a1.544,1.544,0,0,1,1.544-1.544H291.939a1.544,1.544,0,0,1,1.544,1.544v.06a1.544,1.544,0,0,1-1.544,1.544" transform="translate(3442.001 3292.941)" fill="#fff"/>
    <path id="Path_13236" data-name="Path 13236" d="M78.32,695.519H76.029a1.544,1.544,0,0,1-1.544-1.544v-.06a1.544,1.544,0,0,1,1.544-1.544H78.32a1.544,1.544,0,0,1,1.544,1.544v.06a1.544,1.544,0,0,1-1.544,1.544" transform="translate(3471.144 3292.941)" fill="#fff"/>
    <path id="Path_13237" data-name="Path 13237" d="M1006.888,695.519H1004.6a1.544,1.544,0,0,1-1.544-1.544v-.06a1.544,1.544,0,0,1,1.544-1.544h2.291a1.544,1.544,0,0,1,1.544,1.544v.06a1.544,1.544,0,0,1-1.544,1.544" transform="translate(2734.653 3292.941)" fill="#fff"/>
    <path id="Path_13238" data-name="Path 13238" d="M204.321,139.673h1.36a.35.35,0,1,1,0,.7h-1.36a.35.35,0,0,1,0-.7" transform="translate(3368.443 3731.312)" fill="#2b3872"/>
    <path id="Path_13239" data-name="Path 13239" d="M222.321,140.017a.35.35,0,0,1-.35.356h-1.36a.35.35,0,1,1,0-.7h1.352a.355.355,0,0,1,.358.344" transform="translate(3355.522 3731.312)" fill="#2b3872"/>
    <path id="Path_13240" data-name="Path 13240" d="M216.1,128.591v1.36a.35.35,0,1,1-.7,0v-1.36a.35.35,0,1,1,.7,0" transform="translate(3359.375 3740.379)" fill="#2b3872"/>
    <path id="Path_13241" data-name="Path 13241" d="M215.754,144.53h0a.35.35,0,0,1,.35.35v1.36a.35.35,0,0,1-.7,0v-1.36a.35.35,0,0,1,.35-.35" transform="translate(3359.375 3727.46)" fill="#2b3872"/>
    <path id="Path_13242" data-name="Path 13242" d="M132.463,323.58a1.791,1.791,0,1,0,1.791,1.791,1.791,1.791,0,0,0-1.791-1.791m0,3.012a1.22,1.22,0,1,1,1.22-1.22,1.22,1.22,0,0,1-1.22,1.22" transform="translate(3426.58 3585.447)" fill="#2b3872"/>
    <path id="Path_13243" data-name="Path 13243" d="M432.872,524.78h1.36a.35.35,0,1,1,0,.7h-1.36a.35.35,0,0,1,0-.7" transform="translate(3187.168 3425.866)" fill="#fff"/>
    <path id="Path_13244" data-name="Path 13244" d="M450.872,525.124a.35.35,0,0,1-.35.356h-1.36a.35.35,0,1,1,0-.7h1.352a.355.355,0,0,1,.358.344" transform="translate(3174.248 3425.866)" fill="#fff"/>
    <path id="Path_13245" data-name="Path 13245" d="M444.655,513.7v1.36a.35.35,0,0,1-.7,0V513.7a.35.35,0,1,1,.7,0" transform="translate(3178.1 3434.933)" fill="#fff"/>
    <path id="Path_13246" data-name="Path 13246" d="M444.305,529.637h0a.35.35,0,0,1,.35.35v1.36a.35.35,0,0,1-.7,0v-1.36a.35.35,0,0,1,.35-.35" transform="translate(3178.1 3422.013)" fill="#fff"/>
    <path id="Path_13247" data-name="Path 13247" d="M269.084,586.772a1.959,1.959,0,1,0,1.959,1.959,1.959,1.959,0,0,0-1.959-1.959m0,3.048a1.088,1.088,0,1,1,1.089-1.088,1.088,1.088,0,0,1-1.089,1.088" transform="translate(3318.352 3376.697)" fill="#fff"/>
    <path id="Path_13248" data-name="Path 13248" d="M647.258,623.268h1.609a.414.414,0,0,1,0,.828h-1.609a.414.414,0,0,1,0-.828" transform="translate(3017.179 3347.75)" fill="#fff"/>
    <path id="Path_13249" data-name="Path 13249" d="M668.555,623.674a.414.414,0,0,1-.414.421h-1.609a.414.414,0,1,1,0-.828h1.6a.42.42,0,0,1,.424.407" transform="translate(3001.893 3347.751)" fill="#fff"/>
    <path id="Path_13250" data-name="Path 13250" d="M661.2,610.155v1.609a.414.414,0,1,1-.828,0v-1.609a.414.414,0,0,1,.828,0" transform="translate(3006.45 3358.479)" fill="#fff"/>
    <path id="Path_13251" data-name="Path 13251" d="M660.785,629.015h0a.414.414,0,0,1,.414.414v1.609a.414.414,0,0,1-.828,0v-1.609a.414.414,0,0,1,.414-.414" transform="translate(3006.45 3343.192)" fill="#fff"/>
    <path id="Path_13252" data-name="Path 13252" d="M911.849,396.365a1.959,1.959,0,1,0,1.959,1.959,1.959,1.959,0,0,0-1.959-1.959m0,3.048a1.088,1.088,0,1,1,1.088-1.088,1.088,1.088,0,0,1-1.088,1.088" transform="translate(2808.545 3527.718)" fill="#fff"/>
    <path id="Path_13253" data-name="Path 13253" d="M688.018,25.8h1.4a.359.359,0,1,1,0,.718h-1.4a.359.359,0,0,1,0-.718" transform="translate(2984.807 3821.628)" fill="#fff"/>
    <path id="Path_13254" data-name="Path 13254" d="M706.491,26.156a.359.359,0,0,1-.359.365h-1.4a.359.359,0,0,1,0-.718h1.387a.365.365,0,0,1,.368.353" transform="translate(2971.547 3821.628)" fill="#fff"/>
    <path id="Path_13255" data-name="Path 13255" d="M700.11,14.429v1.4a.359.359,0,1,1-.718,0v-1.4a.359.359,0,0,1,.718,0" transform="translate(2975.501 3830.934)" fill="#fff"/>
    <path id="Path_13256" data-name="Path 13256" d="M699.751,30.788h0a.359.359,0,0,1,.359.359v1.4a.359.359,0,0,1-.719,0v-1.4a.359.359,0,0,1,.359-.359" transform="translate(2975.501 3817.674)" fill="#fff"/>
    <path id="Path_13257" data-name="Path 13257" d="M92.282,66.575,69.033,55.69,75.36,82.136,114.374,72.8l-6.327-26.446Z" transform="translate(3475.468 3805.325)" fill="#739cd2"/>
    <path id="Path_13258" data-name="Path 13258" d="M69.033,91.477l6.327,26.446L88.8,100.729Z" transform="translate(3475.468 3769.538)" fill="#5990d9"/>
    <path id="Path_13259" data-name="Path 13259" d="M206.122,46.357,212.449,72.8l-19.762-9.252Z" transform="translate(3377.393 3805.325)" fill="#5990d9"/>
    <path id="Path_13260" data-name="Path 13260" d="M69.033,55.689l2.843,1.474L91.2,67.183a2.022,2.022,0,0,0,2.26-.541l12.714-17.685,1.871-2.6Z" transform="translate(3475.468 3805.326)" fill="#374db2"/>
    <path id="Path_13261" data-name="Path 13261" d="M167.615,173l-16.736-19.465L145.8,180.25l39.408,7.5,5.081-26.713Z" transform="translate(3414.583 3720.316)" fill="#739cd2"/>
    <path id="Path_13262" data-name="Path 13262" d="M150.879,153.538,145.8,180.251l19.307-10.167Z" transform="translate(3414.582 3720.315)" fill="#5990d9"/>
    <path id="Path_13263" data-name="Path 13263" d="M286.843,189.775l-5.081,26.713-14.226-16.546Z" transform="translate(3318.027 3691.574)" fill="#5990d9"/>
    <path id="Path_13264" data-name="Path 13264" d="M170.361,153.538l1.988,2.511,13.513,17.067a2.022,2.022,0,0,0,2.283.434L207,162.639l2.773-1.605Z" transform="translate(3395.1 3720.315)" fill="#374db2"/>
    <path id="Path_13265" data-name="Path 13265" d="M22.41,19.036,0,6.513,4.415,33.344,44,26.831,39.583,0Z" transform="matrix(0.995, -0.105, 0.105, 0.995, 3581.003, 3894.302)" fill="#739cd2"/>
    <path id="Path_13266" data-name="Path 13266" d="M253.336,272.321l4.415,26.831,14.633-16.187Z" transform="translate(3329.289 3626.103)" fill="#5990d9"/>
    <path id="Path_13267" data-name="Path 13267" d="M388.581,240.834,393,267.665l-19.048-10.644Z" transform="translate(3233.626 3651.076)" fill="#5990d9"/>
    <path id="Path_13268" data-name="Path 13268" d="M253.336,247.347l2.73,1.674L274.624,260.4a2.022,2.022,0,0,0,2.293-.377l13.949-16.728,2.052-2.461Z" transform="translate(3329.289 3651.076)" fill="#374db2"/>
    <rect id="Rectangle_21" data-name="Rectangle 21" width="220.542" height="146.367" transform="translate(3530.222 3842.093)" fill="none"/>
    <rect id="Rectangle_22" data-name="Rectangle 22" width="220.543" height="146.367" transform="translate(3530.222 3842.093)" fill="none"/>
  </g>
</svg>
